ply
format ascii 1.0
comment Created by Blender 2.79 (sub 0) - www.blender.org, source file: 'wall.blend'
element vertex 76
property float x
property float y
property float z
property float nx
property float ny
property float nz
property float s
property float t
element face 19
property list uchar uint vertex_indices
end_header
2.000000 -0.200000 2.000000 0.000000 -1.000000 0.000000 0.999900 0.999900
0.000000 -0.200000 2.000000 0.000000 -1.000000 0.000000 0.000100 0.999900
0.000000 -0.200000 0.000000 0.000000 -1.000000 0.000000 0.000100 0.000100
2.000000 -0.200000 0.000000 0.000000 -1.000000 0.000000 0.999900 0.000100
2.000000 -0.200000 0.000000 0.000000 -1.000000 -0.000000 0.000100 0.000100
4.000000 -0.200000 0.000000 0.000000 -1.000000 -0.000000 0.999900 0.000100
4.000000 -0.200000 2.000000 0.000000 -1.000000 -0.000000 0.999900 0.999900
2.000000 -0.200000 2.000000 0.000000 -1.000000 -0.000000 0.000100 0.999900
10.000000 -0.200000 0.000000 0.000000 -1.000000 0.000000 0.000100 0.000100
10.000000 -0.200000 2.000000 0.000000 -1.000000 0.000000 0.000100 0.999900
8.000000 -0.200000 2.000000 0.000000 -1.000000 0.000000 0.999900 0.999900
8.000000 -0.200000 0.000000 0.000000 -1.000000 0.000000 0.999900 0.000100
4.000000 -0.200000 0.000000 1.000000 0.000000 0.000000 0.000100 0.000100
4.000000 0.000000 0.000000 1.000000 0.000000 0.000000 0.100080 0.000100
4.000000 0.000000 2.000000 1.000000 0.000000 0.000000 0.100080 0.999900
4.000000 -0.200000 2.000000 1.000000 0.000000 0.000000 0.000100 0.999900
8.000000 -0.200000 0.000000 0.000000 -1.000000 0.000000 0.000100 0.000100
8.000000 -0.200000 2.000000 0.000000 -1.000000 0.000000 0.000100 0.999900
6.000000 -0.200000 2.000000 0.000000 -1.000000 0.000000 0.999900 0.999900
6.000000 -0.200000 0.000000 0.000000 -1.000000 0.000000 0.999900 0.000100
6.000000 -0.200000 0.000000 -1.000000 -0.000000 0.000000 0.000100 0.000100
6.000000 -0.200000 2.000000 -1.000000 -0.000000 0.000000 0.000100 0.999900
6.000000 0.000000 2.000000 -1.000000 -0.000000 0.000000 0.100080 0.999900
6.000000 0.000000 0.000000 -1.000000 -0.000000 0.000000 0.100080 0.000100
0.200000 -2.000000 0.000000 1.000000 0.000000 0.000000 0.000100 0.000100
0.200000 0.000000 0.000000 1.000000 0.000000 0.000000 0.999900 0.000100
0.200000 0.000000 2.000000 1.000000 0.000000 0.000000 0.999900 0.999900
0.200000 -2.000000 2.000000 1.000000 0.000000 0.000000 0.000100 0.999900
0.200000 -4.000000 0.000000 1.000000 0.000000 0.000000 0.000100 0.000100
0.200000 -2.000000 0.000000 1.000000 0.000000 0.000000 0.999900 0.000100
0.200000 -2.000000 2.000000 1.000000 0.000000 0.000000 0.999900 0.999900
0.200000 -4.000000 2.000000 1.000000 0.000000 0.000000 0.000100 0.999900
0.200000 -6.000000 0.000000 1.000000 0.000000 0.000000 0.000100 0.000100
0.200000 -4.000000 0.000000 1.000000 0.000000 0.000000 0.999900 0.000100
0.200000 -4.000000 2.000000 1.000000 0.000000 0.000000 0.999900 0.999900
0.200000 -6.000000 2.000000 1.000000 0.000000 0.000000 0.000100 0.999900
0.200000 -8.000000 0.000000 1.000000 0.000000 0.000000 0.000100 0.000100
0.200000 -6.000000 0.000000 1.000000 0.000000 0.000000 0.999900 0.000100
0.200000 -6.000000 2.000000 1.000000 0.000000 0.000000 0.999900 0.999900
0.200000 -8.000000 2.000000 1.000000 0.000000 0.000000 0.000100 0.999900
2.000000 -7.800000 0.000000 0.000000 1.000000 0.000000 0.000100 0.000100
0.000000 -7.800000 0.000000 0.000000 1.000000 0.000000 0.999900 0.000100
0.000000 -7.800000 2.000000 0.000000 1.000000 0.000000 0.999900 0.999900
2.000000 -7.800000 2.000000 0.000000 1.000000 0.000000 0.000100 0.999900
4.000000 -7.800000 0.000000 0.000000 1.000000 0.000000 0.000100 0.000100
2.000000 -7.800000 0.000000 0.000000 1.000000 0.000000 0.999900 0.000100
2.000000 -7.800000 2.000000 0.000000 1.000000 0.000000 0.999900 0.999900
4.000000 -7.800000 2.000000 0.000000 1.000000 0.000000 0.000100 0.999900
6.000000 -7.800000 0.000000 0.000000 1.000000 0.000000 0.000100 0.000100
4.000000 -7.800000 0.000000 0.000000 1.000000 0.000000 0.999900 0.000100
4.000000 -7.800000 2.000000 0.000000 1.000000 0.000000 0.999900 0.999900
6.000000 -7.800000 2.000000 0.000000 1.000000 0.000000 0.000100 0.999900
8.000000 -7.800000 0.000000 0.000000 1.000000 0.000000 0.000100 0.000100
6.000000 -7.800000 0.000000 0.000000 1.000000 0.000000 0.999900 0.000100
6.000000 -7.800000 2.000000 0.000000 1.000000 0.000000 0.999900 0.999900
8.000000 -7.800000 2.000000 0.000000 1.000000 0.000000 0.000100 0.999900
10.000000 -7.800000 0.000000 0.000000 1.000000 0.000000 0.000100 0.000100
8.000000 -7.800000 0.000000 0.000000 1.000000 0.000000 0.999900 0.000100
8.000000 -7.800000 2.000000 0.000000 1.000000 0.000000 0.999900 0.999900
10.000000 -7.800000 2.000000 0.000000 1.000000 0.000000 0.000100 0.999900
9.800000 -6.000000 0.000000 -1.000000 0.000000 -0.000000 0.000100 0.000100
9.800000 -8.000000 0.000000 -1.000000 0.000000 -0.000000 0.999900 0.000100
9.800000 -8.000000 2.000000 -1.000000 0.000000 -0.000000 0.999900 0.999900
9.800000 -6.000000 2.000000 -1.000000 0.000000 -0.000000 0.000100 0.999900
9.800000 -4.000000 0.000000 -1.000000 0.000000 -0.000000 0.000100 0.000100
9.800000 -6.000000 0.000000 -1.000000 0.000000 -0.000000 0.999900 0.000100
9.800000 -6.000000 2.000000 -1.000000 0.000000 -0.000000 0.999900 0.999900
9.800000 -4.000000 2.000000 -1.000000 0.000000 -0.000000 0.000100 0.999900
9.800000 -2.000000 0.000000 -1.000000 0.000000 -0.000000 0.000100 0.000100
9.800000 -4.000000 0.000000 -1.000000 0.000000 -0.000000 0.999900 0.000100
9.800000 -4.000000 2.000000 -1.000000 0.000000 -0.000000 0.999900 0.999900
9.800000 -2.000000 2.000000 -1.000000 0.000000 -0.000000 0.000100 0.999900
9.800000 0.000000 0.000000 -1.000000 0.000000 -0.000000 0.000100 0.000100
9.800000 -2.000000 0.000000 -1.000000 0.000000 -0.000000 0.999900 0.000100
9.800000 -2.000000 2.000000 -1.000000 0.000000 -0.000000 0.999900 0.999900
9.800000 0.000000 2.000000 -1.000000 0.000000 -0.000000 0.000100 0.999900
4 0 1 2 3
4 4 5 6 7
4 8 9 10 11
4 12 13 14 15
4 16 17 18 19
4 20 21 22 23
4 24 25 26 27
4 28 29 30 31
4 32 33 34 35
4 36 37 38 39
4 40 41 42 43
4 44 45 46 47
4 48 49 50 51
4 52 53 54 55
4 56 57 58 59
4 60 61 62 63
4 64 65 66 67
4 68 69 70 71
4 72 73 74 75
