ply
format ascii 1.0
comment Created by Blender 2.79 (sub 0) - www.blender.org, source file: 'obl.blend'
element vertex 120
property float x
property float y
property float z
property float nx
property float ny
property float nz
property uchar red
property uchar green
property uchar blue
element face 32
property list uchar uint vertex_indices
end_header
0.763587 -0.322572 -2.827791 0.866022 -0.499998 0.002727 89 89 89
0.757832 -0.312605 0.827792 0.866022 -0.499998 0.002727 89 89 89
0.649640 -0.500000 0.827792 0.866022 -0.499998 0.002727 89 89 89
0.661149 -0.500000 -2.827792 0.866022 -0.499998 0.002727 89 89 89
0.100811 0.059769 -5.832797 0.836029 -0.482682 -0.260909 89 89 89
0.724444 -0.300286 -3.168392 0.836029 -0.482682 -0.260909 89 89 89
0.622277 -0.477244 -3.168392 0.836029 -0.482682 -0.260909 89 89 89
-0.000000 -0.117972 -5.827005 0.836029 -0.482682 -0.260909 89 89 89
-0.724444 -0.300286 -3.168392 -0.836029 -0.482682 -0.260909 89 89 89
-0.100811 0.059769 -5.832797 -0.836029 -0.482682 -0.260909 89 89 89
-0.000000 -0.117972 -5.827005 -0.836029 -0.482682 -0.260909 89 89 89
-0.622277 -0.477244 -3.168392 -0.836029 -0.482682 -0.260909 89 89 89
-0.100811 0.825390 -2.827792 0.000000 1.000000 0.000000 89 89 89
-0.100811 0.825389 0.827792 0.000000 1.000000 0.000000 89 89 89
0.100812 0.825389 0.827792 0.000000 1.000000 0.000000 89 89 89
0.100811 0.825390 -2.827792 0.000000 1.000000 0.000000 89 89 89
-0.100811 0.712581 1.146651 0.000000 0.792624 0.609711 89 89 89
-0.100812 0.077121 1.972749 0.000000 0.792624 0.609711 89 89 89
0.100811 0.077121 1.972749 0.000000 0.792624 0.609711 89 89 89
0.100811 0.712581 1.146651 0.000000 0.792624 0.609711 89 89 89
0.100811 0.077121 1.972749 0.808301 0.466672 0.358979 89 89 89
0.658550 -0.253452 1.146651 0.808301 0.466672 0.358979 89 89 89
0.100811 0.712581 1.146651 0.808301 0.466672 0.358979 89 89 89
-0.100811 0.779878 -3.168393 -0.858225 0.495496 -0.133918 89 89 89
-0.100811 0.059769 -5.832797 -0.858225 0.495496 -0.133918 89 89 89
-0.724444 -0.300286 -3.168392 -0.858225 0.495496 -0.133918 89 89 89
0.658550 -0.253452 1.146651 0.680829 -0.393970 0.617462 89 89 89
0.100811 0.077121 1.972749 0.680829 -0.393970 0.617462 89 89 89
-0.000001 -0.135324 1.948157 0.680829 -0.393970 0.617462 89 89 89
0.548722 -0.443607 1.146622 0.680829 -0.393970 0.617462 89 89 89
-0.100811 0.059769 -5.832797 -0.000000 -0.032570 -0.999469 89 89 89
0.100811 0.059769 -5.832797 -0.000000 -0.032570 -0.999469 89 89 89
-0.000000 -0.117972 -5.827005 -0.000000 -0.032570 -0.999469 89 89 89
-0.000001 -0.135324 1.948157 -0.000000 -0.114992 0.993366 89 89 89
0.100811 0.077121 1.972749 -0.000000 -0.114992 0.993366 89 89 89
-0.100812 0.077121 1.972749 -0.000000 -0.114992 0.993366 89 89 89
0.100812 0.825389 0.827792 0.866026 0.500000 0.000000 89 89 89
0.757832 -0.312605 0.827792 0.866026 0.500000 0.000000 89 89 89
0.763587 -0.322572 -2.827791 0.866026 0.500000 0.000000 89 89 89
0.100811 0.825390 -2.827792 0.866026 0.500000 0.000000 89 89 89
0.100811 0.779878 -3.168393 0.858225 0.495496 -0.133918 89 89 89
0.724444 -0.300286 -3.168392 0.858225 0.495496 -0.133918 89 89 89
0.100811 0.059769 -5.832797 0.858225 0.495496 -0.133918 89 89 89
-0.661149 -0.500000 -2.827791 -0.000000 -1.000000 0.000000 89 89 89
0.661149 -0.500000 -2.827792 -0.000000 -1.000000 0.000000 89 89 89
0.649640 -0.500000 0.827792 -0.000000 -1.000000 0.000000 89 89 89
-0.649641 -0.499999 0.827792 -0.000000 -1.000000 0.000000 89 89 89
-0.000001 -0.135324 1.948157 -0.000001 -0.933346 0.358979 89 89 89
-0.548723 -0.443606 1.146622 -0.000001 -0.933346 0.358979 89 89 89
0.548722 -0.443607 1.146622 -0.000001 -0.933346 0.358979 89 89 89
-0.548723 -0.443606 1.146622 -0.680830 -0.393969 0.617461 89 89 89
-0.000001 -0.135324 1.948157 -0.680830 -0.393969 0.617461 89 89 89
-0.100812 0.077121 1.972749 -0.680830 -0.393969 0.617461 89 89 89
-0.658551 -0.253451 1.146650 -0.680830 -0.393969 0.617461 89 89 89
-0.658551 -0.253451 1.146650 -0.808301 0.466673 0.358979 89 89 89
-0.100812 0.077121 1.972749 -0.808301 0.466673 0.358979 89 89 89
-0.100811 0.712581 1.146651 -0.808301 0.466673 0.358979 89 89 89
0.622277 -0.477244 -3.168392 -0.000000 -0.990992 -0.133918 89 89 89
-0.622277 -0.477244 -3.168392 -0.000000 -0.990992 -0.133918 89 89 89
-0.000000 -0.117972 -5.827005 -0.000000 -0.990992 -0.133918 89 89 89
-0.661149 -0.500000 -2.827791 -0.866023 -0.499998 0.002727 89 89 89
-0.649641 -0.499999 0.827792 -0.866023 -0.499998 0.002727 89 89 89
-0.757833 -0.312605 0.827791 -0.866023 -0.499998 0.002727 89 89 89
-0.763587 -0.322572 -2.827791 -0.866023 -0.499998 0.002727 89 89 89
-0.100811 0.825389 0.827792 -0.866025 0.500000 0.000000 89 89 89
-0.100811 0.825390 -2.827792 -0.866025 0.500000 0.000000 89 89 89
-0.763587 -0.322572 -2.827791 -0.866025 0.500000 0.000000 89 89 89
-0.757833 -0.312605 0.827791 -0.866025 0.500000 0.000000 89 89 89
0.100811 0.779878 -3.168393 0.000000 0.991190 -0.132444 89 89 89
-0.100811 0.779878 -3.168393 0.000000 0.991190 -0.132444 89 89 89
-0.100811 0.825390 -2.827792 0.000000 0.991190 -0.132444 89 89 89
0.100811 0.825390 -2.827792 0.000000 0.991190 -0.132444 89 89 89
-0.100811 0.712581 1.146651 0.000000 0.942740 0.333529 89 89 89
0.100811 0.712581 1.146651 0.000000 0.942740 0.333529 89 89 89
0.100812 0.825389 0.827792 0.000000 0.942740 0.333529 89 89 89
-0.100811 0.825389 0.827792 0.000000 0.942740 0.333529 89 89 89
0.622277 -0.477244 -3.168392 0.858551 -0.495684 -0.131102 89 89 89
0.724444 -0.300286 -3.168392 0.858551 -0.495684 -0.131102 89 89 89
0.763587 -0.322572 -2.827791 0.858551 -0.495684 -0.131102 89 89 89
0.661149 -0.500000 -2.827792 0.858551 -0.495684 -0.131102 89 89 89
0.658550 -0.253452 1.146651 0.814135 -0.470159 0.340785 89 89 89
0.548722 -0.443607 1.146622 0.814135 -0.470159 0.340785 89 89 89
0.649640 -0.500000 0.827792 0.814135 -0.470159 0.340785 89 89 89
0.757832 -0.312605 0.827792 0.814135 -0.470159 0.340785 89 89 89
-0.724444 -0.300286 -3.168392 -0.858551 -0.495684 -0.131101 89 89 89
-0.622277 -0.477244 -3.168392 -0.858551 -0.495684 -0.131101 89 89 89
-0.661149 -0.500000 -2.827791 -0.858551 -0.495684 -0.131101 89 89 89
-0.763587 -0.322572 -2.827791 -0.858551 -0.495684 -0.131101 89 89 89
-0.548723 -0.443606 1.146622 -0.814136 -0.470157 0.340785 89 89 89
-0.658551 -0.253451 1.146650 -0.814136 -0.470157 0.340785 89 89 89
-0.757833 -0.312605 0.827791 -0.814136 -0.470157 0.340785 89 89 89
-0.649641 -0.499999 0.827792 -0.814136 -0.470157 0.340785 89 89 89
0.100811 0.712581 1.146651 0.852786 0.492356 0.174189 89 89 89
0.658550 -0.253452 1.146651 0.852786 0.492356 0.174189 89 89 89
0.757832 -0.312605 0.827792 0.852786 0.492356 0.174189 89 89 89
0.100812 0.825389 0.827792 0.852786 0.492356 0.174189 89 89 89
0.724444 -0.300286 -3.168392 0.864099 0.498888 -0.066662 89 89 89
0.100811 0.779878 -3.168393 0.864099 0.498888 -0.066662 89 89 89
0.100811 0.825390 -2.827792 0.864099 0.498888 -0.066662 89 89 89
0.763587 -0.322572 -2.827791 0.864099 0.498888 -0.066662 89 89 89
-0.763587 -0.322572 -2.827791 -0.864099 0.498888 -0.066662 89 89 89
-0.100811 0.825390 -2.827792 -0.864099 0.498888 -0.066662 89 89 89
-0.100811 0.779878 -3.168393 -0.864099 0.498888 -0.066662 89 89 89
-0.724444 -0.300286 -3.168392 -0.864099 0.498888 -0.066662 89 89 89
-0.658551 -0.253451 1.146650 -0.852786 0.492357 0.174189 89 89 89
-0.100811 0.712581 1.146651 -0.852786 0.492357 0.174189 89 89 89
-0.100811 0.825389 0.827792 -0.852786 0.492357 0.174189 89 89 89
-0.757833 -0.312605 0.827791 -0.852786 0.492357 0.174189 89 89 89
0.661149 -0.500000 -2.827792 -0.000000 -0.997776 -0.066662 89 89 89
-0.661149 -0.500000 -2.827791 -0.000000 -0.997776 -0.066662 89 89 89
-0.622277 -0.477244 -3.168392 -0.000000 -0.997776 -0.066662 89 89 89
0.622277 -0.477244 -3.168392 -0.000000 -0.997776 -0.066662 89 89 89
0.548722 -0.443607 1.146622 -0.000001 -0.984715 0.174171 89 89 89
-0.548723 -0.443606 1.146622 -0.000001 -0.984715 0.174171 89 89 89
-0.649641 -0.499999 0.827792 -0.000001 -0.984715 0.174171 89 89 89
0.649640 -0.500000 0.827792 -0.000001 -0.984715 0.174171 89 89 89
-0.100811 0.059769 -5.832797 0.000000 0.965363 -0.260909 89 89 89
-0.100811 0.779878 -3.168393 0.000000 0.965363 -0.260909 89 89 89
0.100811 0.779878 -3.168393 0.000000 0.965363 -0.260909 89 89 89
0.100811 0.059769 -5.832797 0.000000 0.965363 -0.260909 89 89 89
4 0 1 2 3
4 4 5 6 7
4 8 9 10 11
4 12 13 14 15
4 16 17 18 19
3 20 21 22
3 23 24 25
4 26 27 28 29
3 30 31 32
3 33 34 35
4 36 37 38 39
3 40 41 42
4 43 44 45 46
3 47 48 49
4 50 51 52 53
3 54 55 56
3 57 58 59
4 60 61 62 63
4 64 65 66 67
4 68 69 70 71
4 72 73 74 75
4 76 77 78 79
4 80 81 82 83
4 84 85 86 87
4 88 89 90 91
4 92 93 94 95
4 96 97 98 99
4 100 101 102 103
4 104 105 106 107
4 108 109 110 111
4 112 113 114 115
4 116 117 118 119
