ply
format ascii 1.0
comment Created by Blender 2.79 (sub 0) - www.blender.org, source file: ''
element vertex 40
property float x
property float y
property float z
property float nx
property float ny
property float nz
property uchar red
property uchar green
property uchar blue
element face 10
property list uchar uint vertex_indices
end_header
3.900000 3.900000 -0.000000 0.000000 -0.000000 1.000000 255 0 252
-3.899998 3.900002 -0.000000 0.000000 -0.000000 1.000000 255 0 252
-3.900001 -3.899999 -0.000000 0.000000 -0.000000 1.000000 255 0 252
3.900000 -3.900000 -0.000000 0.000000 -0.000000 1.000000 255 0 252
3.900000 3.900000 -0.000000 -1.000000 0.000000 -0.000000 21 0 255
3.900000 -3.900000 -0.000000 -1.000000 0.000000 -0.000000 21 0 255
3.899998 -3.900002 4.800000 -1.000000 0.000000 -0.000000 21 0 255
3.900002 3.899998 4.800000 -1.000000 0.000000 -0.000000 21 0 255
3.900000 -3.900000 -0.000000 0.000000 1.000000 0.000000 21 0 255
-3.900001 -3.899999 -0.000000 0.000000 1.000000 0.000000 21 0 255
-3.900002 -3.899999 4.800000 0.000000 1.000000 0.000000 21 0 255
3.899998 -3.900002 4.800000 0.000000 1.000000 0.000000 21 0 255
-3.900001 -3.899999 -0.000000 1.000000 -0.000000 0.000000 21 0 255
-3.899998 3.900002 -0.000000 1.000000 -0.000000 0.000000 21 0 255
-3.900000 3.900000 4.800000 1.000000 -0.000000 0.000000 21 0 255
-3.900002 -3.899999 4.800000 1.000000 -0.000000 0.000000 21 0 255
-3.899998 3.900002 -0.000000 -0.000000 -1.000000 -0.000000 21 0 255
3.900000 3.900000 -0.000000 -0.000000 -1.000000 -0.000000 21 0 255
3.900002 3.899998 4.800000 -0.000000 -1.000000 -0.000000 21 0 255
-3.900000 3.900000 4.800000 -0.000000 -1.000000 -0.000000 21 0 255
21.900000 3.900000 -0.000000 0.000000 -0.000000 1.000000 146 255 173
14.100002 3.900002 -0.000000 0.000000 -0.000000 1.000000 146 255 173
14.099999 -3.899999 -0.000000 0.000000 -0.000000 1.000000 146 255 173
21.900000 -3.900000 -0.000000 0.000000 -0.000000 1.000000 146 255 173
21.900000 3.900000 -0.000000 -1.000000 0.000000 0.000000 255 199 127
21.900000 -3.900000 -0.000000 -1.000000 0.000000 0.000000 255 199 127
21.899998 -3.900002 4.800000 -1.000000 0.000000 0.000000 255 199 127
21.900002 3.899998 4.800000 -1.000000 0.000000 0.000000 255 199 127
21.900000 -3.900000 -0.000000 0.000000 1.000000 0.000000 255 199 127
14.099999 -3.899999 -0.000000 0.000000 1.000000 0.000000 255 199 127
14.099998 -3.899999 4.800000 0.000000 1.000000 0.000000 255 199 127
21.899998 -3.900002 4.800000 0.000000 1.000000 0.000000 255 199 127
14.099999 -3.899999 -0.000000 1.000000 -0.000000 0.000000 255 199 127
14.100002 3.900002 -0.000000 1.000000 -0.000000 0.000000 255 199 127
14.100000 3.900000 4.800000 1.000000 -0.000000 0.000000 255 199 127
14.099998 -3.899999 4.800000 1.000000 -0.000000 0.000000 255 199 127
21.900002 3.899998 4.800000 -0.000000 -1.000000 -0.000000 255 199 127
14.100000 3.900000 4.800000 -0.000000 -1.000000 -0.000000 255 199 127
14.100002 3.900002 -0.000000 -0.000000 -1.000000 -0.000000 255 199 127
21.900000 3.900000 -0.000000 -0.000000 -1.000000 -0.000000 255 199 127
4 0 1 2 3
4 4 5 6 7
4 8 9 10 11
4 12 13 14 15
4 16 17 18 19
4 20 21 22 23
4 24 25 26 27
4 28 29 30 31
4 32 33 34 35
4 36 37 38 39
