ply
format ascii 1.0
comment Created by Blender 2.79 (sub 0) - www.blender.org, source file: ''
element vertex 124
property float x
property float y
property float z
property float nx
property float ny
property float nz
property uchar red
property uchar green
property uchar blue
element face 50
property list uchar uint vertex_indices
end_header
5.300000 5.300000 -1.000000 0.000000 -0.000000 1.000000 168 168 168
-5.299998 5.300002 -1.000000 0.000000 -0.000000 1.000000 168 168 168
-5.300001 -5.299999 -1.000000 0.000000 -0.000000 1.000000 168 168 168
5.300000 -5.300000 -1.000000 0.000000 -0.000000 1.000000 168 168 168
20.700001 21.299999 4.600000 0.000000 1.000000 0.000000 168 168 168
31.300003 21.299997 4.600000 0.000000 1.000000 0.000000 168 168 168
31.300003 21.299997 -4.400000 0.000000 1.000000 0.000000 168 168 168
20.700001 21.299999 -4.400000 0.000000 1.000000 0.000000 168 168 168
5.300000 5.300000 -1.000000 -1.000000 0.000000 -0.000000 63 76 97
5.300000 -5.300000 -1.000000 -1.000000 0.000000 -0.000000 63 76 97
5.299997 -5.300004 4.600000 -1.000000 0.000000 -0.000000 63 76 97
5.300003 5.299998 4.600000 -1.000000 0.000000 -0.000000 63 76 97
5.300000 -5.300000 -1.000000 0.000000 1.000000 0.000000 63 76 97
-5.300001 -5.299999 -1.000000 0.000000 1.000000 0.000000 63 76 97
-5.300002 -5.299998 4.600000 0.000000 1.000000 0.000000 63 76 97
5.299997 -5.300004 4.600000 0.000000 1.000000 0.000000 63 76 97
-5.300001 -5.299999 -1.000000 1.000000 -0.000000 0.000000 63 76 97
-5.299998 5.300002 -1.000000 1.000000 -0.000000 0.000000 63 76 97
-5.300000 5.300000 4.600000 1.000000 -0.000000 0.000000 63 76 97
-5.300002 -5.299998 4.600000 1.000000 -0.000000 0.000000 63 76 97
-5.299998 5.300002 -1.000000 -0.000000 -1.000000 -0.000000 63 76 97
5.300000 5.300000 -1.000000 -0.000000 -1.000000 -0.000000 63 76 97
5.300003 5.299998 4.600000 -0.000000 -1.000000 -0.000000 63 76 97
-5.300000 5.300000 4.600000 -0.000000 -1.000000 -0.000000 63 76 97
31.299999 5.300000 -1.000000 0.000000 -0.000000 1.000000 168 168 168
20.700003 5.300002 -1.000000 0.000000 -0.000000 1.000000 168 168 168
20.699999 -5.299999 -1.000000 0.000000 -0.000000 1.000000 168 168 168
31.299999 -5.300000 -1.000000 0.000000 -0.000000 1.000000 168 168 168
-23.300003 -18.299999 4.600000 -1.000000 0.000000 0.000000 168 168 168
-23.300003 -5.299998 4.600000 -1.000000 0.000000 0.000000 168 168 168
-23.300003 -5.299998 -4.400000 -1.000000 0.000000 0.000000 168 168 168
-23.300003 -18.299999 -4.400000 -1.000000 0.000000 0.000000 168 168 168
31.299999 5.300000 -1.000000 -1.000000 0.000000 0.000000 97 57 74
31.299999 -5.300000 -1.000000 -1.000000 0.000000 0.000000 97 57 74
31.299997 -5.300004 4.600000 -1.000000 0.000000 0.000000 97 57 74
31.300003 5.299998 4.600000 -1.000000 0.000000 0.000000 97 57 74
31.299999 -5.300000 -1.000000 0.000000 1.000000 0.000000 97 57 74
20.699999 -5.299999 -1.000000 0.000000 1.000000 0.000000 97 57 74
20.699997 -5.299998 4.600000 0.000000 1.000000 0.000000 97 57 74
31.299997 -5.300004 4.600000 0.000000 1.000000 0.000000 97 57 74
20.699999 -5.299999 -1.000000 1.000000 -0.000000 0.000000 97 57 74
20.700003 5.300002 -1.000000 1.000000 -0.000000 0.000000 97 57 74
20.700001 5.300000 4.600000 1.000000 -0.000000 0.000000 97 57 74
20.699997 -5.299998 4.600000 1.000000 -0.000000 0.000000 97 57 74
31.300003 5.299998 4.600000 -0.000000 -1.000000 -0.000000 97 57 74
20.700001 5.300000 4.600000 -0.000000 -1.000000 -0.000000 97 57 74
20.700003 5.300002 -1.000000 -0.000000 -1.000000 -0.000000 97 57 74
31.299999 5.300000 -1.000000 -0.000000 -1.000000 -0.000000 97 57 74
5.299997 -5.300004 4.600000 0.000000 0.000000 1.000000 168 168 168
20.699997 -5.299998 4.600000 0.000000 0.000000 1.000000 168 168 168
20.700001 5.300000 4.600000 0.000000 0.000000 1.000000 168 168 168
5.300003 5.299998 4.600000 0.000000 0.000000 1.000000 168 168 168
5.299997 -18.300003 4.600000 0.000000 0.000000 1.000000 168 168 168
20.699997 -18.299999 4.600000 0.000000 0.000000 1.000000 168 168 168
31.299997 -18.300003 4.600000 0.000000 0.000000 1.000000 168 168 168
31.299997 -5.300004 4.600000 0.000000 0.000000 1.000000 168 168 168
-5.300002 -5.299998 4.600000 0.000000 0.000000 1.000000 168 168 168
-5.300002 -18.299999 4.600000 0.000000 0.000000 1.000000 168 168 168
20.700001 21.299999 4.600000 -0.000000 0.000000 1.000000 168 168 168
5.300003 21.299997 4.600000 -0.000000 0.000000 1.000000 168 168 168
31.300003 5.299998 4.600000 -0.000000 0.000000 1.000000 168 168 168
31.300003 21.299997 4.600000 -0.000000 0.000000 1.000000 168 168 168
-5.300000 21.299999 4.600000 -0.000000 0.000000 1.000000 168 168 168
-5.300000 5.300000 4.600000 -0.000000 0.000000 1.000000 168 168 168
-23.299999 21.299999 4.600000 0.000000 -0.000000 1.000000 168 168 168
-23.299999 5.300000 4.600000 0.000000 -0.000000 1.000000 168 168 168
-23.300003 -5.299998 4.600000 0.000000 -0.000000 1.000000 168 168 168
-23.300003 -18.299999 4.600000 0.000000 -0.000000 1.000000 168 168 168
41.300003 5.299998 4.600000 0.000000 0.000000 1.000000 168 168 168
41.300003 21.299997 4.600000 0.000000 0.000000 1.000000 168 168 168
41.299995 -18.300003 4.600000 0.000000 0.000000 1.000000 168 168 168
41.299995 -5.300004 4.600000 0.000000 0.000000 1.000000 168 168 168
41.300003 21.299997 4.600000 1.000000 0.000000 -0.000000 168 168 168
41.300003 5.299998 4.600000 1.000000 0.000000 -0.000000 168 168 168
41.300003 5.299998 -4.400000 1.000000 0.000000 -0.000000 168 168 168
41.300003 21.299997 -4.400000 1.000000 0.000000 -0.000000 168 168 168
31.299997 -18.300003 4.600000 -0.000000 -1.000000 0.000000 168 168 168
20.699997 -18.299999 4.600000 -0.000000 -1.000000 0.000000 168 168 168
20.699997 -18.299999 -4.400000 -0.000000 -1.000000 0.000000 168 168 168
31.299997 -18.300003 -4.400000 -0.000000 -1.000000 0.000000 168 168 168
-23.299999 5.300000 4.600000 -1.000000 0.000000 0.000000 168 168 168
-23.299999 21.299999 4.600000 -1.000000 0.000000 0.000000 168 168 168
-23.299999 21.299999 -4.400000 -1.000000 0.000000 0.000000 168 168 168
-23.299999 5.300000 -4.400000 -1.000000 0.000000 0.000000 168 168 168
5.300003 21.299997 4.600000 -0.000000 1.000000 0.000000 168 168 168
5.300003 21.299997 -4.400000 -0.000000 1.000000 0.000000 168 168 168
41.300003 21.299997 4.600000 0.000000 1.000000 -0.000000 168 168 168
41.300003 21.299997 -4.400000 0.000000 1.000000 -0.000000 168 168 168
5.299997 -18.300003 4.600000 0.000000 -1.000000 0.000000 168 168 168
5.299997 -18.300003 -4.400000 0.000000 -1.000000 0.000000 168 168 168
-23.299999 21.299999 4.600000 0.000000 1.000000 -0.000000 168 168 168
-5.300000 21.299999 4.600000 0.000000 1.000000 -0.000000 168 168 168
-5.300000 21.299999 -4.400000 0.000000 1.000000 -0.000000 168 168 168
-23.299999 21.299999 -4.400000 0.000000 1.000000 -0.000000 168 168 168
-5.300002 -18.299999 4.600000 0.000000 -1.000000 0.000000 168 168 168
-23.300003 -18.299999 4.600000 0.000000 -1.000000 0.000000 168 168 168
-23.300003 -18.299999 -4.400000 0.000000 -1.000000 0.000000 168 168 168
-5.300002 -18.299999 -4.400000 0.000000 -1.000000 0.000000 168 168 168
41.299995 -18.300003 4.600000 0.000000 -1.000000 0.000000 168 168 168
41.299995 -18.300003 -4.400000 0.000000 -1.000000 0.000000 168 168 168
41.300003 5.299998 4.600000 1.000000 -0.000001 0.000000 168 168 168
41.299995 -5.300004 4.600000 1.000000 -0.000001 0.000000 168 168 168
41.299995 -5.300004 -4.400000 1.000000 -0.000001 0.000000 168 168 168
41.300003 5.299998 -4.400000 1.000000 -0.000001 0.000000 168 168 168
41.299995 -5.300004 4.600000 1.000000 0.000000 -0.000000 168 168 168
41.299995 -18.300003 4.600000 1.000000 0.000000 -0.000000 168 168 168
41.299995 -18.300003 -4.400000 1.000000 0.000000 -0.000000 168 168 168
41.299995 -5.300004 -4.400000 1.000000 0.000000 -0.000000 168 168 168
-5.300000 21.299999 -4.400000 0.000000 0.000000 -1.000000 168 168 168
-5.300002 -18.299999 -4.400000 0.000000 0.000000 -1.000000 168 168 168
-23.300003 -18.299999 -4.400000 0.000000 0.000000 -1.000000 168 168 168
-23.300003 -5.299998 -4.400000 0.000000 -0.000000 -1.000000 168 168 168
-23.299999 5.300000 -4.400000 0.000000 -0.000000 -1.000000 168 168 168
-23.299999 21.299999 -4.400000 -0.000000 -0.000000 -1.000000 168 168 168
5.299997 -18.300003 -4.400000 0.000000 -0.000000 -1.000000 168 168 168
5.300003 21.299997 -4.400000 0.000000 -0.000000 -1.000000 168 168 168
20.699997 -18.299999 -4.400000 0.000000 -0.000000 -1.000000 168 168 168
20.700001 21.299999 -4.400000 0.000000 -0.000000 -1.000000 168 168 168
31.299997 -18.300003 -4.400000 0.000000 -0.000000 -1.000000 168 168 168
31.300003 21.299997 -4.400000 0.000000 -0.000000 -1.000000 168 168 168
41.299995 -5.300004 -4.400000 0.000000 0.000000 -1.000000 168 168 168
41.299995 -18.300003 -4.400000 0.000000 0.000000 -1.000000 168 168 168
41.300003 21.299997 -4.400000 -0.000000 0.000000 -1.000000 168 168 168
41.300003 5.299998 -4.400000 0.000000 0.000000 -1.000000 168 168 168
4 0 1 2 3
4 4 5 6 7
4 8 9 10 11
4 12 13 14 15
4 16 17 18 19
4 20 21 22 23
4 24 25 26 27
4 28 29 30 31
4 32 33 34 35
4 36 37 38 39
4 40 41 42 43
4 44 45 46 47
4 48 49 50 51
4 48 52 53 49
4 49 53 54 55
4 56 57 52 48
4 50 58 59 51
4 60 61 58 50
4 51 59 62 63
4 62 64 65 63
4 56 66 67 57
4 63 65 66 56
4 60 68 69 61
4 54 70 71 55
4 55 71 68 60
4 72 73 74 75
4 76 77 78 79
4 80 81 82 83
4 84 4 7 85
4 5 86 87 6
4 77 88 89 78
4 90 91 92 93
4 94 95 96 97
4 98 76 79 99
4 100 101 102 103
4 29 80 83 30
4 91 84 85 92
4 104 105 106 107
4 88 94 97 89
3 108 109 110
3 110 111 112
3 112 113 108
3 110 112 108
4 114 109 108 115
4 116 114 115 117
4 118 116 117 119
3 120 121 118
3 118 119 122
3 122 123 120
3 118 122 120
