ply
format ascii 1.0
comment Created by Blender 2.79 (sub 0) - www.blender.org, source file: ''
element vertex 44
property float x
property float y
property float z
property float nx
property float ny
property float nz
property uchar red
property uchar green
property uchar blue
element face 16
property list uchar uint vertex_indices
end_header
4.000000 3.999998 0.000000 0.000000 -0.000000 1.000000 0 255 173
-4.000001 4.000000 0.000001 0.000000 -0.000000 1.000000 0 255 173
-4.000000 -3.999999 0.000000 0.000000 -0.000000 1.000000 0 255 173
3.999999 -3.999999 -0.000000 0.000000 -0.000000 1.000000 0 255 173
-4.000001 4.000000 0.000001 1.000000 0.000000 0.000000 186 186 186
-4.000001 4.000000 3.000000 1.000000 0.000000 0.000000 186 186 186
-4.000000 -3.999999 3.000000 1.000000 0.000000 0.000000 186 186 186
-4.000000 -3.999999 0.000000 1.000000 0.000000 0.000000 186 186 186
4.000000 -3.999999 3.000000 -1.000000 0.000000 0.000000 186 186 186
4.000000 -3.999999 4.999999 -1.000000 0.000000 0.000000 186 186 186
4.000001 -1.333333 4.999999 -1.000000 0.000000 0.000000 186 186 186
4.000000 -1.333332 3.000000 -1.000000 0.000000 0.000000 186 186 186
1.333333 -4.000000 3.000000 -0.000000 1.000000 0.000000 186 186 186
1.333333 -4.000001 5.000000 -0.000000 1.000000 0.000000 186 186 186
4.000000 -4.000000 4.999999 -0.000000 1.000000 0.000000 186 186 186
3.999999 -4.000000 2.999999 -0.000000 1.000000 0.000000 186 186 186
4.000000 3.999999 3.000000 -0.000000 -1.000000 -0.000000 186 186 186
4.000000 3.999999 4.999999 -0.000000 -1.000000 -0.000000 186 186 186
-4.000000 3.999999 5.000000 -0.000000 -1.000000 -0.000000 186 186 186
-4.000001 4.000000 3.000000 -0.000000 -1.000000 -0.000000 186 186 186
-4.000000 -3.999999 3.000000 0.000000 1.000000 0.000000 186 186 186
-4.000000 -4.000000 4.999999 0.000000 1.000000 0.000000 186 186 186
-1.333333 -4.000000 5.000000 0.000000 1.000000 0.000000 186 186 186
-1.333333 -4.000000 3.000000 0.000000 1.000000 0.000000 186 186 186
4.000002 1.333334 5.000000 -1.000000 0.000000 0.000000 186 186 186
4.000001 1.333334 3.000000 -1.000000 0.000000 0.000000 186 186 186
-4.000000 -3.999999 0.000000 0.000000 1.000000 0.000000 186 186 186
-1.333333 -3.999999 0.000000 0.000000 1.000000 0.000000 186 186 186
-4.000001 4.000000 0.000001 -0.000000 -1.000000 -0.000000 186 186 186
4.000000 3.999998 0.000000 -0.000000 -1.000000 -0.000000 186 186 186
1.333334 -4.000000 0.000001 -0.000000 1.000000 0.000000 186 186 186
3.999999 -3.999999 -0.000000 -0.000000 1.000000 0.000000 186 186 186
4.000002 4.000000 4.999999 -1.000000 0.000000 0.000000 186 186 186
4.000001 4.000000 2.999999 -1.000000 0.000000 0.000000 186 186 186
-4.000000 -4.000000 4.999999 1.000000 0.000000 -0.000000 186 186 186
-4.000000 3.999999 5.000000 1.000000 0.000000 -0.000000 186 186 186
3.999999 -3.999999 0.000000 -1.000000 0.000000 0.000000 186 186 186
4.000000 -1.333332 0.000001 -1.000000 0.000000 0.000000 186 186 186
4.000000 1.333335 0.000001 -1.000000 0.000000 0.000000 186 186 186
4.000000 4.000000 -0.000000 -1.000000 0.000000 0.000000 186 186 186
3.999999 -3.999999 4.999999 -0.000000 0.000000 -1.000000 112 112 112
-3.999999 -4.000000 5.000000 -0.000000 0.000000 -1.000000 112 112 112
-4.000000 3.999998 5.000001 -0.000000 0.000000 -1.000000 112 112 112
4.000000 4.000000 5.000000 -0.000000 0.000000 -1.000000 112 112 112
4 0 1 2 3
4 4 5 6 7
4 8 9 10 11
4 12 13 14 15
4 16 17 18 19
4 20 21 22 23
4 23 22 13 12
4 11 10 24 25
4 26 20 23 27
4 19 28 29 16
4 30 12 15 31
4 25 24 32 33
4 34 6 5 35
4 36 8 11 37
4 38 25 33 39
4 40 41 42 43
