ply
format ascii 1.0
comment Created by Blender 2.80 (sub 75) - www.blender.org, source file: ''
element vertex 187
property float x
property float y
property float z
property float nx
property float ny
property float nz
property uchar red
property uchar green
property uchar blue
property uchar alpha
element face 86
property list uchar uint vertex_indices
end_header
-2.347580 4.275677 -68.383888 -0.495380 0.858024 -0.135623 110 110 110 255
-14.203176 4.130632 -25.997551 -0.495380 0.858024 -0.135623 110 110 110 255
3.508025 14.356201 -25.997547 -0.495380 0.858024 -0.135623 110 110 110 255
-2.444013 -4.238145 -68.359032 -0.495394 -0.858048 -0.135416 110 110 110 255
3.377034 -14.284366 -25.997557 -0.495394 -0.858048 -0.135416 110 110 110 255
-14.044164 -4.226233 -25.997553 -0.495394 -0.858048 -0.135416 110 110 110 255
4.893386 -0.001894 -68.359032 0.990789 0.000000 -0.135416 110 110 110 255
10.683147 10.062387 -25.997549 0.990789 0.000000 -0.135416 110 110 110 255
10.683146 -10.053883 -25.997557 0.990789 0.000000 -0.135416 110 110 110 255
-14.044164 -4.226233 -25.997553 -0.500000 -0.866025 -0.000000 110 110 110 255
3.377034 -14.284366 -25.997557 -0.500000 -0.866025 -0.000000 110 110 110 255
3.383770 -14.288258 -10.034336 -0.500000 -0.866025 -0.000000 110 110 110 255
-14.044741 -4.225902 -10.034332 -0.500000 -0.866025 -0.000000 110 110 110 255
4.893386 -0.001894 -68.359032 0.001697 -0.002939 -0.999994 110 110 110 255
-2.444013 -4.238145 -68.359032 0.001697 -0.002939 -0.999994 110 110 110 255
-2.347580 4.275677 -68.383888 0.001697 -0.002939 -0.999994 110 110 110 255
10.683146 -10.053883 -25.997557 0.483268 -0.834612 -0.264340 110 110 110 255
3.377034 -14.284366 -25.997557 0.483268 -0.834612 -0.264340 110 110 110 255
-2.444013 -4.238145 -68.359032 0.483268 -0.834612 -0.264340 110 110 110 255
10.683146 -10.053883 -25.997557 0.482246 -0.835274 -0.264114 110 110 110 255
-2.444013 -4.238145 -68.359032 0.482246 -0.835274 -0.264114 110 110 110 255
4.893386 -0.001894 -68.359032 0.482246 -0.835274 -0.264114 110 110 110 255
-14.044741 -4.225902 -10.034332 -0.999742 -0.022615 -0.001916 110 110 110 255
-14.233377 4.113193 -10.034328 -0.999742 -0.022615 -0.001916 110 110 110 255
-14.203176 4.130632 -25.997551 -0.999742 -0.022615 -0.001916 110 110 110 255
-14.044741 -4.225902 -10.034332 -0.999819 -0.019024 -0.000036 110 110 110 255
-14.203176 4.130632 -25.997551 -0.999819 -0.019024 -0.000036 110 110 110 255
-14.044164 -4.226233 -25.997553 -0.999819 -0.019024 -0.000036 110 110 110 255
10.683146 -10.053883 -25.997557 1.000000 -0.000000 0.000000 110 110 110 255
10.683147 10.062387 -25.997549 1.000000 -0.000000 0.000000 110 110 110 255
10.683147 10.070163 -10.034328 1.000000 -0.000000 0.000000 110 110 110 255
10.683148 -10.054554 -10.034334 1.000000 0.000000 -0.000000 110 110 110 255
-14.044164 -4.226233 -25.997553 -0.962860 -0.018321 -0.269378 110 110 110 255
-14.203176 4.130632 -25.997551 -0.962860 -0.018321 -0.269378 110 110 110 255
-2.347580 4.275677 -68.383888 -0.962860 -0.018321 -0.269378 110 110 110 255
-14.044164 -4.226233 -25.997553 -0.964441 0.010153 -0.264103 110 110 110 255
-2.347580 4.275677 -68.383888 -0.964441 0.010153 -0.264103 110 110 110 255
-2.444013 -4.238145 -68.359032 -0.964441 0.010153 -0.264103 110 110 110 255
3.508025 14.356201 -25.997547 0.495245 0.827573 -0.264303 110 110 110 255
10.683147 10.062387 -25.997549 0.495245 0.827573 -0.264303 110 110 110 255
4.893386 -0.001894 -68.359032 0.495245 0.827573 -0.264303 110 110 110 255
3.508025 14.356201 -25.997547 0.491090 0.829764 -0.265182 110 110 110 255
4.893386 -0.001894 -68.359032 0.491090 0.829764 -0.265182 110 110 110 255
-2.347580 4.275677 -68.383888 0.491090 0.829764 -0.265182 110 110 110 255
3.519852 14.363027 -10.034328 0.514045 0.857763 -0.000418 110 110 110 255
10.683147 10.070163 -10.034328 0.514045 0.857763 -0.000418 110 110 110 255
10.683147 10.062387 -25.997549 0.514045 0.857763 -0.000418 110 110 110 255
3.519852 14.363027 -10.034328 0.513505 0.858086 -0.000747 110 110 110 255
10.683147 10.062387 -25.997549 0.513505 0.858086 -0.000747 110 110 110 255
3.508025 14.356201 -25.997547 0.513505 0.858086 -0.000747 110 110 110 255
10.683148 -10.054554 -10.034334 0.501724 -0.865028 -0.000423 110 110 110 255
3.383770 -14.288258 -10.034336 0.501724 -0.865028 -0.000423 110 110 110 255
3.377034 -14.284366 -25.997557 0.501724 -0.865028 -0.000423 110 110 110 255
10.683148 -10.054554 -10.034334 0.501092 -0.865394 -0.000036 110 110 110 255
3.377034 -14.284366 -25.997557 0.501092 -0.865394 -0.000036 110 110 110 255
10.683146 -10.053883 -25.997557 0.501092 -0.865394 -0.000036 110 110 110 255
-14.203176 4.130632 -25.997551 -0.500000 0.866025 0.000000 110 110 110 255
-14.233377 4.113193 -10.034328 -0.500000 0.866025 0.000000 110 110 110 255
3.519852 14.363027 -10.034328 -0.500000 0.866025 0.000000 110 110 110 255
3.508025 14.356201 -25.997547 -0.500000 0.866025 0.000000 110 110 110 255
3.519852 14.363027 -10.034328 0.363655 0.606736 0.706843 110 110 110 255
3.507488 12.723413 -8.620564 0.363655 0.606736 0.706843 110 110 110 255
9.269382 9.269953 -8.620564 0.363655 0.606736 0.706843 110 110 110 255
3.519852 14.363027 -10.034328 0.363567 0.606666 0.706948 110 110 110 255
9.269382 9.269953 -8.620564 0.363567 0.606666 0.706948 110 110 110 255
10.683147 10.070163 -10.034328 0.363567 0.606666 0.706948 110 110 110 255
3.507488 12.723413 -8.620564 -0.353553 0.612372 0.707107 110 110 110 255
3.519852 14.363027 -10.034328 -0.353553 0.612372 0.707107 110 110 110 255
-14.233377 4.113193 -10.034328 -0.353553 0.612372 0.707107 110 110 110 255
3.507488 12.723413 -8.620564 -0.353553 0.612372 0.707108 110 110 110 255
-14.233377 4.113193 -10.034328 -0.353553 0.612372 0.707108 110 110 110 255
-12.803440 3.306292 -8.620565 -0.353553 0.612372 0.707108 110 110 110 255
-12.649628 -3.398897 -8.620567 -0.353553 -0.612373 0.707107 110 110 110 255
-14.044741 -4.225902 -10.034332 -0.353553 -0.612373 0.707107 110 110 110 255
3.383770 -14.288258 -10.034336 -0.353553 -0.612373 0.707107 110 110 110 255
-12.649628 -3.398897 -8.620567 -0.353554 -0.612373 0.707106 110 110 110 255
3.383770 -14.288258 -10.034336 -0.353554 -0.612373 0.707106 110 110 110 255
3.382688 -12.655158 -8.620569 -0.353554 -0.612373 0.707106 110 110 110 255
-14.044741 -4.225902 -10.034332 -0.706934 -0.016217 0.707094 110 110 110 255
-12.649628 -3.398897 -8.620567 -0.706934 -0.016217 0.707094 110 110 110 255
-12.803440 3.306292 -8.620565 -0.706934 -0.016217 0.707094 110 110 110 255
-14.044741 -4.225902 -10.034332 -0.707536 -0.016005 0.706496 110 110 110 255
-12.803440 3.306292 -8.620565 -0.707536 -0.016005 0.706496 110 110 110 255
-14.233377 4.113193 -10.034328 -0.707536 -0.016005 0.706496 110 110 110 255
9.269383 -9.240313 -8.620568 0.707107 -0.000000 0.707107 110 110 110 255
10.683148 -10.054554 -10.034334 0.707107 -0.000000 0.707107 110 110 110 255
10.683147 10.070163 -10.034328 0.707107 -0.000000 0.707107 110 110 110 255
9.269382 9.269953 -8.620564 0.707107 -0.000000 0.707107 110 110 110 255
10.683148 -10.054554 -10.034334 0.354818 -0.611655 0.707094 110 110 110 255
9.269383 -9.240313 -8.620568 0.354818 -0.611655 0.707094 110 110 110 255
3.382688 -12.655158 -8.620569 0.354818 -0.611655 0.707094 110 110 110 255
10.683148 -10.054554 -10.034334 0.354841 -0.611785 0.706970 110 110 110 255
3.382688 -12.655158 -8.620569 0.354841 -0.611785 0.706970 110 110 110 255
3.383770 -14.288258 -10.034336 0.354841 -0.611785 0.706970 110 110 110 255
9.269382 9.269953 -8.620564 0.000000 -0.000000 1.000000 110 110 110 255
2.810276 2.813864 -8.620565 0.000000 -0.000000 1.000000 110 110 110 255
2.810277 -2.803643 -8.620567 0.000000 -0.000000 1.000000 110 110 110 255
9.269383 -9.240313 -8.620568 -0.000000 -0.000000 1.000000 110 110 110 255
1.061654 3.861923 -8.620565 -0.514094 -0.857734 0.000000 110 110 110 255
1.061654 3.861923 -9.496890 -0.514094 -0.857734 0.000000 110 110 110 255
2.810276 2.813865 -9.496890 -0.514094 -0.857734 0.000000 110 110 110 255
2.810276 2.813864 -8.620565 -0.514094 -0.857734 -0.000000 110 110 110 255
3.507488 12.723413 -8.620564 -0.000000 -0.000000 1.000000 110 110 110 255
1.061654 3.861923 -8.620565 -0.000000 -0.000000 1.000000 110 110 110 255
-12.649628 -3.398897 -8.620567 0.000000 -0.000001 1.000000 110 110 110 255
-3.841718 -1.030885 -8.620567 0.000000 -0.000001 1.000000 110 110 110 255
-3.888397 1.004009 -8.620565 0.000000 -0.000001 1.000000 110 110 110 255
-12.649628 -3.398897 -8.620567 -0.000000 -0.000000 1.000000 110 110 110 255
-3.888397 1.004009 -8.620565 -0.000000 -0.000000 1.000000 110 110 110 255
-12.803440 3.306292 -8.620565 -0.000000 -0.000000 1.000000 110 110 110 255
3.382688 -12.655158 -8.620569 -0.000000 -0.000000 1.000000 110 110 110 255
1.023779 -3.839982 -8.620567 -0.000000 -0.000000 1.000000 110 110 110 255
-3.841718 -1.030885 -8.620567 -0.000000 -0.000000 1.000000 110 110 110 255
2.810276 2.813865 -9.496890 -0.000001 -0.000000 1.000000 110 110 110 255
1.955788 1.959775 -9.496891 -0.000001 -0.000000 1.000000 110 110 110 255
1.955788 -1.952121 -9.496891 -0.000001 -0.000000 1.000000 110 110 110 255
2.810276 2.813865 -9.496890 0.000001 -0.000000 1.000000 110 110 110 255
1.955788 -1.952121 -9.496891 0.000001 -0.000000 1.000000 110 110 110 255
2.810277 -2.803642 -9.496892 0.000001 -0.000000 1.000000 110 110 110 255
2.810277 -2.803643 -8.620567 -0.501780 0.864995 0.000000 110 110 110 255
2.810277 -2.803642 -9.496892 -0.501780 0.864995 0.000000 110 110 110 255
1.023779 -3.839982 -9.496893 -0.501780 0.864995 0.000000 110 110 110 255
1.023779 -3.839982 -8.620567 -0.501780 0.864995 0.000000 110 110 110 255
-3.841718 -1.030885 -8.620567 0.999737 0.022933 0.000000 110 110 110 255
-3.841718 -1.030885 -9.496891 0.999737 0.022933 0.000000 110 110 110 255
-3.888397 1.004010 -9.496891 0.999737 0.022933 0.000000 110 110 110 255
-3.888397 1.004009 -8.620565 0.999737 0.022933 0.000000 110 110 110 255
-3.888397 1.004009 -8.620565 0.500000 -0.866025 -0.000000 110 110 110 255
-3.888397 1.004010 -9.496891 0.500000 -0.866025 -0.000000 110 110 110 255
1.061654 3.861923 -9.496890 0.500000 -0.866025 -0.000000 110 110 110 255
1.061654 3.861923 -8.620565 0.500000 -0.866025 0.000000 110 110 110 255
2.810276 2.813864 -8.620565 -1.000000 -0.000000 -0.000000 110 110 110 255
2.810276 2.813865 -9.496890 -1.000000 -0.000000 -0.000000 110 110 110 255
2.810277 -2.803642 -9.496892 -1.000000 -0.000000 -0.000000 110 110 110 255
2.810277 -2.803643 -8.620567 -1.000000 -0.000000 -0.000000 110 110 110 255
1.023779 -3.839982 -8.620567 0.500000 0.866025 0.000000 110 110 110 255
1.023779 -3.839982 -9.496893 0.500000 0.866025 0.000000 110 110 110 255
-3.841718 -1.030885 -9.496891 0.500000 0.866025 0.000000 110 110 110 255
-3.841718 -1.030885 -8.620567 0.500000 0.866025 0.000000 110 110 110 255
1.023779 -3.839982 -9.496893 -0.000000 -0.000001 1.000000 110 110 110 255
0.711714 -2.673803 -9.496892 -0.000000 -0.000001 1.000000 110 110 110 255
-2.676501 -0.717616 -9.496891 -0.000000 -0.000001 1.000000 110 110 110 255
1.023779 -3.839982 -9.496893 0.000000 -0.000000 1.000000 110 110 110 255
-2.676501 -0.717616 -9.496891 0.000000 -0.000000 1.000000 110 110 110 255
-3.841718 -1.030885 -9.496891 0.000000 -0.000000 1.000000 110 110 110 255
1.061654 3.861923 -9.496890 0.000001 -0.000000 1.000000 110 110 110 255
0.738089 2.689618 -9.496890 0.000001 -0.000000 1.000000 110 110 110 255
1.955788 1.959775 -9.496891 0.000001 -0.000000 1.000000 110 110 110 255
1.061654 3.861923 -9.496890 -0.000000 -0.000001 1.000000 110 110 110 255
1.955788 1.959775 -9.496891 -0.000000 -0.000001 1.000000 110 110 110 255
2.810276 2.813865 -9.496890 -0.000000 -0.000001 1.000000 110 110 110 255
2.810277 -2.803642 -9.496892 -0.000000 -0.000001 1.000000 110 110 110 255
1.955788 -1.952121 -9.496891 -0.000000 -0.000001 1.000000 110 110 110 255
-2.709007 0.699436 -9.496891 0.000000 0.000000 1.000000 110 110 110 255
-3.888397 1.004010 -9.496891 0.000000 0.000000 1.000000 110 110 110 255
0.738089 2.689618 -9.496890 -0.000000 -0.000000 1.000000 110 110 110 255
1.061654 3.861923 -9.496890 -0.000000 0.000000 1.000000 110 110 110 255
1.955788 1.959775 -9.496891 -1.000000 -0.000000 -0.000000 110 110 110 255
1.955788 1.959776 -10.575444 -1.000000 -0.000000 -0.000000 110 110 110 255
1.955788 -1.952121 -10.575445 -1.000000 -0.000000 -0.000000 110 110 110 255
1.955788 -1.952121 -9.496891 -1.000000 -0.000000 -0.000000 110 110 110 255
1.955788 -1.952121 -10.575445 -0.000000 -0.000000 1.000000 110 110 110 255
1.955788 1.959776 -10.575444 -0.000000 -0.000000 1.000000 110 110 110 255
0.738089 2.689618 -10.575444 -0.000000 -0.000000 1.000000 110 110 110 255
-2.709007 0.699436 -10.575445 -0.000000 -0.000000 1.000000 110 110 110 255
-2.676501 -0.717616 -10.575445 -0.000000 -0.000000 1.000000 110 110 110 255
0.711714 -2.673803 -10.575445 0.000000 0.000000 1.000000 110 110 110 255
0.711714 -2.673803 -9.496892 0.500000 0.866025 -0.000000 110 110 110 255
0.711714 -2.673803 -10.575445 0.500000 0.866025 -0.000000 110 110 110 255
-2.676501 -0.717616 -10.575445 0.500000 0.866025 -0.000000 110 110 110 255
-2.676501 -0.717616 -9.496891 0.500000 0.866025 0.000000 110 110 110 255
0.738089 2.689618 -9.496890 -0.514093 -0.857734 -0.000000 110 110 110 255
0.738089 2.689618 -10.575444 -0.514093 -0.857734 -0.000000 110 110 110 255
1.955788 1.959776 -10.575444 -0.514093 -0.857734 -0.000000 110 110 110 255
1.955788 1.959775 -9.496891 -0.514093 -0.857734 -0.000000 110 110 110 255
1.955788 -1.952121 -9.496891 -0.501780 0.864995 0.000000 110 110 110 255
1.955788 -1.952121 -10.575445 -0.501780 0.864995 0.000000 110 110 110 255
0.711714 -2.673803 -10.575445 -0.501780 0.864995 0.000000 110 110 110 255
0.711714 -2.673803 -9.496892 -0.501780 0.864995 0.000000 110 110 110 255
-2.676501 -0.717616 -9.496891 0.999737 0.022933 0.000000 110 110 110 255
-2.676501 -0.717616 -10.575445 0.999737 0.022933 0.000000 110 110 110 255
-2.709007 0.699436 -10.575445 0.999737 0.022933 0.000000 110 110 110 255
-2.709007 0.699436 -9.496891 0.999737 0.022933 0.000000 110 110 110 255
-2.709007 0.699436 -9.496891 0.500000 -0.866025 -0.000000 110 110 110 255
-2.709007 0.699436 -10.575445 0.500000 -0.866025 -0.000000 110 110 110 255
0.738089 2.689618 -10.575444 0.500000 -0.866025 -0.000000 110 110 110 255
0.738089 2.689618 -9.496890 0.500000 -0.866025 -0.000000 110 110 110 255
3 0 1 2
3 3 4 5
3 6 7 8
3 9 10 11
3 9 11 12
3 13 14 15
3 16 17 18
3 19 20 21
3 22 23 24
3 25 26 27
3 28 29 30
3 28 30 31
3 32 33 34
3 35 36 37
3 38 39 40
3 41 42 43
3 44 45 46
3 47 48 49
3 50 51 52
3 53 54 55
3 56 57 58
3 56 58 59
3 60 61 62
3 63 64 65
3 66 67 68
3 69 70 71
3 72 73 74
3 75 76 77
3 78 79 80
3 81 82 83
3 84 85 86
3 84 86 87
3 88 89 90
3 91 92 93
3 94 95 96
3 94 96 97
3 98 99 100
3 98 100 101
3 102 103 95
3 102 95 94
3 104 105 106
3 107 108 109
3 110 111 112
3 110 112 107
3 97 96 111
3 97 111 110
3 109 108 103
3 109 103 102
3 113 114 115
3 116 117 118
3 119 120 121
3 119 121 122
3 123 124 125
3 123 125 126
3 127 128 129
3 127 129 130
3 131 132 133
3 131 133 134
3 135 136 137
3 135 137 138
3 139 140 141
3 142 143 144
3 145 146 147
3 148 149 150
3 151 152 140
3 151 140 139
3 144 143 153
3 144 153 154
3 154 153 155
3 154 155 156
3 157 158 159
3 157 159 160
3 161 162 163
3 163 164 165
3 165 166 161
3 163 165 161
3 167 168 169
3 167 169 170
3 171 172 173
3 171 173 174
3 175 176 177
3 175 177 178
3 179 180 181
3 179 181 182
3 183 184 185
3 183 185 186
