ply
format ascii 1.0
comment Created by Blender 2.79 (sub 0) - www.blender.org, source file: ''
element vertex 248
property float x
property float y
property float z
property float nx
property float ny
property float nz
property uchar red
property uchar green
property uchar blue
element face 68
property list uchar uint vertex_indices
end_header
-0.633089 0.943119 -2.040963 0.000000 0.926791 -0.375578 194 97 207
0.633090 0.943118 -2.040963 0.000000 0.926791 -0.375578 194 97 207
0.166775 0.476804 -3.191658 0.000000 0.926791 -0.375578 194 97 207
-0.166775 0.476804 -3.191658 0.000000 0.926791 -0.375578 194 97 207
0.689972 1.000000 1.743814 0.000000 1.000000 0.000000 194 97 207
0.689971 1.000000 -1.743814 0.000000 1.000000 0.000000 194 97 207
-0.689971 1.000000 -1.743814 0.000000 1.000000 0.000000 194 97 207
-0.689971 1.000000 1.743814 0.000000 1.000000 0.000000 194 97 207
-0.021320 0.221691 -3.359248 0.000000 0.000000 -1.000000 194 97 207
0.021320 0.221691 -3.359248 0.000000 0.000000 -1.000000 194 97 207
0.221691 0.021320 -3.359248 0.000000 0.000000 -1.000000 194 97 207
0.221691 -0.021321 -3.359248 0.000000 0.000000 -1.000000 194 97 207
0.021320 -0.221691 -3.359248 0.000000 0.000000 -1.000000 194 97 207
-0.021321 -0.221692 -3.359248 0.000000 0.000000 -1.000000 194 97 207
-0.221691 -0.021321 -3.359248 0.000000 0.000000 -1.000000 194 97 207
-0.221691 0.021321 -3.359248 0.000000 -0.000000 -1.000000 194 97 207
-1.000000 0.689971 -1.743814 -0.707107 0.707107 0.000000 194 97 207
-1.000000 0.689971 1.743814 -0.707107 0.707107 0.000000 194 97 207
-0.689971 1.000000 1.743814 -0.707107 0.707107 0.000000 194 97 207
-0.689971 1.000000 -1.743814 -0.707107 0.707107 0.000000 194 97 207
0.221691 -0.021321 3.359248 -0.000001 0.000000 1.000000 194 97 207
0.221691 0.021320 3.359248 -0.000001 0.000000 1.000000 194 97 207
0.021321 0.221691 3.359247 -0.000001 0.000000 1.000000 194 97 207
0.021321 0.221691 3.359247 0.000006 -0.000007 1.000000 194 97 207
-0.021321 0.221691 3.359248 0.000006 -0.000007 1.000000 194 97 207
-0.221692 0.021320 3.359247 0.000006 -0.000007 1.000000 194 97 207
-0.221692 0.021320 3.359247 -0.000001 0.000000 1.000000 194 97 207
-0.221692 -0.021321 3.359247 -0.000001 0.000000 1.000000 194 97 207
-0.021321 -0.221692 3.359248 -0.000001 0.000000 1.000000 194 97 207
-0.021321 -0.221692 3.359248 0.000006 -0.000007 1.000000 194 97 207
0.021320 -0.221692 3.359247 0.000006 -0.000007 1.000000 194 97 207
0.221691 -0.021321 3.359248 0.000006 -0.000007 1.000000 194 97 207
0.221691 -0.021321 3.359248 -0.000000 0.000001 1.000000 194 97 207
0.021321 0.221691 3.359247 -0.000000 0.000001 1.000000 194 97 207
-0.221692 0.021320 3.359247 -0.000000 0.000001 1.000000 194 97 207
-0.021321 -0.221692 3.359248 -0.000000 0.000001 1.000000 194 97 207
0.476804 0.166775 3.191658 0.613498 0.613497 0.497234 194 97 207
0.943119 0.633089 2.040963 0.613498 0.613497 0.497234 194 97 207
0.633090 0.943118 2.040963 0.613498 0.613497 0.497234 194 97 207
0.166776 0.476804 3.191658 0.613498 0.613497 0.497234 194 97 207
0.943118 -0.633090 2.040963 0.926791 -0.000001 0.375578 194 97 207
0.943119 0.633089 2.040963 0.926791 -0.000001 0.375578 194 97 207
0.476804 0.166775 3.191658 0.926791 -0.000001 0.375578 194 97 207
0.476804 -0.166776 3.191658 0.926791 -0.000001 0.375578 194 97 207
-0.943118 -0.633089 -2.040963 -0.926791 0.000000 -0.375578 194 97 207
-0.943118 0.633090 -2.040963 -0.926791 0.000000 -0.375578 194 97 207
-0.476804 0.166776 -3.191658 -0.926791 0.000000 -0.375578 194 97 207
-0.476804 -0.166775 -3.191658 -0.926791 0.000000 -0.375578 194 97 207
0.633090 -0.943118 -2.040963 -0.000000 -0.926791 -0.375578 194 97 207
-0.633090 -0.943118 -2.040963 -0.000000 -0.926791 -0.375578 194 97 207
-0.166776 -0.476804 -3.191658 -0.000000 -0.926791 -0.375578 194 97 207
0.166775 -0.476804 -3.191658 -0.000000 -0.926791 -0.375578 194 97 207
-0.689971 -1.000000 -1.743814 -0.707107 -0.707107 -0.000000 194 97 207
-0.689971 -1.000000 1.743814 -0.707107 -0.707107 -0.000000 194 97 207
-1.000000 -0.689971 1.743814 -0.707107 -0.707107 -0.000000 194 97 207
-1.000000 -0.689971 -1.743814 -0.707107 -0.707107 -0.000000 194 97 207
-0.943118 0.633089 2.040963 -0.926791 0.000000 0.375578 194 97 207
-0.943119 -0.633089 2.040963 -0.926791 0.000000 0.375578 194 97 207
-0.476805 -0.166775 3.191658 -0.926791 0.000000 0.375578 194 97 207
-0.476804 0.166775 3.191658 -0.926791 0.000000 0.375578 194 97 207
-0.633090 -0.943118 2.040963 -0.000000 -0.926791 0.375578 194 97 207
0.633089 -0.943119 2.040963 -0.000000 -0.926791 0.375578 194 97 207
0.166775 -0.476805 3.191658 -0.000000 -0.926791 0.375578 194 97 207
-0.166776 -0.476804 3.191658 -0.000000 -0.926791 0.375578 194 97 207
1.000000 0.689971 -1.743814 1.000000 -0.000000 -0.000000 194 97 207
1.000000 0.689971 1.743814 1.000000 -0.000000 -0.000000 194 97 207
1.000000 -0.689972 1.743814 1.000000 -0.000000 -0.000000 194 97 207
1.000000 -0.689971 -1.743814 1.000000 -0.000000 -0.000000 194 97 207
0.689971 -1.000000 -1.743814 -0.000000 -1.000000 -0.000000 194 97 207
0.689970 -1.000000 1.743814 -0.000000 -1.000000 -0.000000 194 97 207
-0.689971 -1.000000 1.743814 -0.000000 -1.000000 -0.000000 194 97 207
-0.689971 -1.000000 -1.743814 -0.000000 -1.000000 -0.000000 194 97 207
-1.000000 -0.689971 -1.743814 -1.000000 0.000000 -0.000000 194 97 207
-1.000000 -0.689971 1.743814 -1.000000 0.000000 -0.000000 194 97 207
-1.000000 0.689971 1.743814 -1.000000 0.000000 -0.000000 194 97 207
-1.000000 0.689971 -1.743814 -1.000000 0.000000 -0.000000 194 97 207
-0.633089 0.943119 -2.040963 -0.613497 0.613498 -0.497234 194 97 207
-0.166775 0.476804 -3.191658 -0.613497 0.613498 -0.497234 194 97 207
-0.476804 0.166776 -3.191658 -0.613497 0.613498 -0.497234 194 97 207
-0.943118 0.633090 -2.040963 -0.613497 0.613498 -0.497234 194 97 207
-0.166776 0.476804 3.191658 -0.613497 0.613497 0.497234 194 97 207
-0.633089 0.943118 2.040963 -0.613497 0.613497 0.497234 194 97 207
-0.943118 0.633089 2.040963 -0.613497 0.613497 0.497234 194 97 207
-0.476804 0.166775 3.191658 -0.613497 0.613497 0.497234 194 97 207
0.633090 -0.943118 -2.040963 0.613497 -0.613497 -0.497234 194 97 207
0.166775 -0.476804 -3.191658 0.613497 -0.613497 -0.497234 194 97 207
0.476804 -0.166775 -3.191658 0.613497 -0.613497 -0.497234 194 97 207
0.943118 -0.633090 -2.040963 0.613497 -0.613497 -0.497234 194 97 207
1.000000 -0.689971 -1.743814 0.707107 -0.707107 -0.000000 194 97 207
1.000000 -0.689972 1.743814 0.707107 -0.707107 -0.000000 194 97 207
0.689970 -1.000000 1.743814 0.707107 -0.707107 -0.000000 194 97 207
0.689971 -1.000000 -1.743814 0.707107 -0.707107 -0.000000 194 97 207
0.943118 -0.633090 2.040963 0.613497 -0.613498 0.497234 194 97 207
0.476804 -0.166776 3.191658 0.613497 -0.613498 0.497234 194 97 207
0.166775 -0.476805 3.191658 0.613497 -0.613498 0.497234 194 97 207
0.633089 -0.943119 2.040963 0.613497 -0.613498 0.497234 194 97 207
-0.166776 -0.476804 -3.191658 -0.613498 -0.613497 -0.497234 194 97 207
-0.633090 -0.943118 -2.040963 -0.613498 -0.613497 -0.497234 194 97 207
-0.943118 -0.633089 -2.040963 -0.613498 -0.613497 -0.497234 194 97 207
-0.476804 -0.166775 -3.191658 -0.613498 -0.613497 -0.497234 194 97 207
0.633090 0.943118 2.040963 0.000000 0.926791 0.375578 194 97 207
-0.633089 0.943118 2.040963 0.000000 0.926791 0.375578 194 97 207
-0.166776 0.476804 3.191658 0.000000 0.926791 0.375578 194 97 207
0.166776 0.476804 3.191658 0.000000 0.926791 0.375578 194 97 207
-0.633090 -0.943118 2.040963 -0.613498 -0.613497 0.497234 194 97 207
-0.166776 -0.476804 3.191658 -0.613498 -0.613497 0.497234 194 97 207
-0.476805 -0.166775 3.191658 -0.613498 -0.613497 0.497234 194 97 207
-0.943119 -0.633089 2.040963 -0.613498 -0.613497 0.497234 194 97 207
0.943118 0.633089 -2.040963 0.926791 0.000000 -0.375578 194 97 207
0.943118 -0.633090 -2.040963 0.926791 0.000000 -0.375578 194 97 207
0.476804 -0.166775 -3.191658 0.926791 0.000000 -0.375578 194 97 207
0.476804 0.166775 -3.191658 0.926791 0.000000 -0.375578 194 97 207
-0.021321 -0.221692 3.359248 -0.360074 -0.360073 0.860636 194 97 207
-0.221692 -0.021321 3.359247 -0.360074 -0.360073 0.860636 194 97 207
-0.476805 -0.166775 3.191658 -0.360074 -0.360073 0.860636 194 97 207
-0.166776 -0.476804 3.191658 -0.360074 -0.360073 0.860636 194 97 207
-0.221692 0.021320 3.359247 -0.360074 0.360073 0.860636 194 97 207
-0.021321 0.221691 3.359248 -0.360074 0.360073 0.860636 194 97 207
-0.166776 0.476804 3.191658 -0.360074 0.360073 0.860636 194 97 207
-0.476804 0.166775 3.191658 -0.360074 0.360073 0.860636 194 97 207
0.021320 -0.221691 -3.359248 0.360073 -0.360073 -0.860636 194 97 207
0.221691 -0.021321 -3.359248 0.360073 -0.360073 -0.860636 194 97 207
0.476804 -0.166775 -3.191658 0.360073 -0.360073 -0.860636 194 97 207
0.166775 -0.476804 -3.191658 0.360073 -0.360073 -0.860636 194 97 207
0.221691 0.021320 -3.359248 0.360073 0.360073 -0.860636 194 97 207
0.021320 0.221691 -3.359248 0.360073 0.360073 -0.860636 194 97 207
0.166775 0.476804 -3.191658 0.360073 0.360073 -0.860636 194 97 207
0.476804 0.166775 -3.191658 0.360073 0.360073 -0.860636 194 97 207
0.021321 0.221691 3.359247 0.360073 0.360073 0.860636 194 97 207
0.221691 0.021320 3.359248 0.360073 0.360073 0.860636 194 97 207
0.476804 0.166775 3.191658 0.360073 0.360073 0.860636 194 97 207
0.166776 0.476804 3.191658 0.360073 0.360073 0.860636 194 97 207
-0.021320 0.221691 -3.359248 -0.360073 0.360073 -0.860636 194 97 207
-0.221691 0.021321 -3.359248 -0.360073 0.360073 -0.860636 194 97 207
-0.476804 0.166776 -3.191658 -0.360073 0.360073 -0.860636 194 97 207
-0.166775 0.476804 -3.191658 -0.360073 0.360073 -0.860636 194 97 207
-0.221691 -0.021321 -3.359248 -0.360073 -0.360073 -0.860636 194 97 207
-0.021321 -0.221692 -3.359248 -0.360073 -0.360073 -0.860636 194 97 207
-0.166776 -0.476804 -3.191658 -0.360073 -0.360073 -0.860636 194 97 207
-0.476804 -0.166775 -3.191658 -0.360073 -0.360073 -0.860636 194 97 207
0.221691 -0.021321 3.359248 0.360073 -0.360073 0.860636 194 97 207
0.021320 -0.221692 3.359247 0.360073 -0.360073 0.860636 194 97 207
0.166775 -0.476805 3.191658 0.360073 -0.360073 0.860636 194 97 207
0.476804 -0.166776 3.191658 0.360073 -0.360073 0.860636 194 97 207
0.021320 0.221691 -3.359248 0.000000 0.549050 -0.835790 194 97 207
-0.021320 0.221691 -3.359248 0.000000 0.549050 -0.835790 194 97 207
-0.166775 0.476804 -3.191658 0.000000 0.549050 -0.835790 194 97 207
0.166775 0.476804 -3.191658 0.000000 0.549050 -0.835790 194 97 207
0.221691 -0.021321 -3.359248 0.549050 -0.000000 -0.835790 194 97 207
0.221691 0.021320 -3.359248 0.549050 -0.000000 -0.835790 194 97 207
0.476804 0.166775 -3.191658 0.549050 -0.000000 -0.835790 194 97 207
0.476804 -0.166775 -3.191658 0.549050 -0.000000 -0.835790 194 97 207
-0.021321 -0.221692 -3.359248 0.000000 -0.549050 -0.835790 194 97 207
0.021320 -0.221691 -3.359248 0.000000 -0.549050 -0.835790 194 97 207
0.166775 -0.476804 -3.191658 0.000000 -0.549050 -0.835790 194 97 207
-0.166776 -0.476804 -3.191658 0.000000 -0.549050 -0.835790 194 97 207
-0.221691 0.021321 -3.359248 -0.549050 0.000000 -0.835790 194 97 207
-0.221691 -0.021321 -3.359248 -0.549050 0.000000 -0.835790 194 97 207
-0.476804 -0.166775 -3.191658 -0.549050 0.000000 -0.835790 194 97 207
-0.476804 0.166776 -3.191658 -0.549050 0.000000 -0.835790 194 97 207
0.221691 0.021320 3.359248 0.549050 -0.000000 0.835790 194 97 207
0.221691 -0.021321 3.359248 0.549050 -0.000000 0.835790 194 97 207
0.476804 -0.166776 3.191658 0.549050 -0.000000 0.835790 194 97 207
0.476804 0.166775 3.191658 0.549050 -0.000000 0.835790 194 97 207
-0.021321 0.221691 3.359248 0.000000 0.549050 0.835790 194 97 207
0.021321 0.221691 3.359247 0.000000 0.549050 0.835790 194 97 207
0.166776 0.476804 3.191658 0.000000 0.549050 0.835790 194 97 207
-0.166776 0.476804 3.191658 0.000000 0.549050 0.835790 194 97 207
0.021320 -0.221692 3.359247 -0.000000 -0.549050 0.835790 194 97 207
-0.021321 -0.221692 3.359248 -0.000000 -0.549050 0.835790 194 97 207
-0.166776 -0.476804 3.191658 -0.000000 -0.549050 0.835790 194 97 207
0.166775 -0.476805 3.191658 -0.000000 -0.549050 0.835790 194 97 207
-0.221692 -0.021321 3.359247 -0.549050 0.000000 0.835790 194 97 207
-0.221692 0.021320 3.359247 -0.549050 0.000000 0.835790 194 97 207
-0.476804 0.166775 3.191658 -0.549050 0.000000 0.835790 194 97 207
-0.476805 -0.166775 3.191658 -0.549050 0.000000 0.835790 194 97 207
0.689971 1.000000 -1.743814 0.707107 0.707107 -0.000000 194 97 207
0.689972 1.000000 1.743814 0.707107 0.707107 -0.000000 194 97 207
1.000000 0.689971 1.743814 0.707107 0.707107 -0.000000 194 97 207
1.000000 0.689971 -1.743814 0.707107 0.707107 -0.000000 194 97 207
0.943118 0.633089 -2.040963 0.682539 0.682538 -0.261309 194 97 207
0.633090 0.943118 -2.040963 0.682539 0.682538 -0.261309 194 97 207
0.689971 1.000000 -1.743814 0.682539 0.682538 -0.261309 194 97 207
1.000000 0.689971 -1.743814 0.682539 0.682538 -0.261309 194 97 207
0.633090 0.943118 2.040963 0.682539 0.682538 0.261309 194 97 207
0.943119 0.633089 2.040963 0.682539 0.682538 0.261309 194 97 207
1.000000 0.689971 1.743814 0.682539 0.682538 0.261309 194 97 207
0.689972 1.000000 1.743814 0.682539 0.682538 0.261309 194 97 207
0.633090 -0.943118 -2.040963 0.682539 -0.682539 -0.261309 194 97 207
0.943118 -0.633090 -2.040963 0.682539 -0.682539 -0.261309 194 97 207
1.000000 -0.689971 -1.743814 0.682539 -0.682539 -0.261309 194 97 207
0.689971 -1.000000 -1.743814 0.682539 -0.682539 -0.261309 194 97 207
0.943118 -0.633090 2.040963 0.682538 -0.682539 0.261309 194 97 207
0.633089 -0.943119 2.040963 0.682538 -0.682539 0.261309 194 97 207
0.689970 -1.000000 1.743814 0.682538 -0.682539 0.261309 194 97 207
1.000000 -0.689972 1.743814 0.682538 -0.682539 0.261309 194 97 207
-0.943118 -0.633089 -2.040963 -0.682539 -0.682538 -0.261309 194 97 207
-0.633090 -0.943118 -2.040963 -0.682539 -0.682538 -0.261309 194 97 207
-0.689971 -1.000000 -1.743814 -0.682539 -0.682538 -0.261309 194 97 207
-1.000000 -0.689971 -1.743814 -0.682539 -0.682538 -0.261309 194 97 207
-0.633090 -0.943118 2.040963 -0.682539 -0.682538 0.261309 194 97 207
-0.943119 -0.633089 2.040963 -0.682539 -0.682538 0.261309 194 97 207
-1.000000 -0.689971 1.743814 -0.682539 -0.682538 0.261309 194 97 207
-0.689971 -1.000000 1.743814 -0.682539 -0.682538 0.261309 194 97 207
-0.633089 0.943119 -2.040963 -0.682539 0.682539 -0.261309 194 97 207
-0.943118 0.633090 -2.040963 -0.682539 0.682539 -0.261309 194 97 207
-1.000000 0.689971 -1.743814 -0.682539 0.682539 -0.261309 194 97 207
-0.689971 1.000000 -1.743814 -0.682539 0.682539 -0.261309 194 97 207
-0.943118 0.633089 2.040963 -0.682538 0.682539 0.261309 194 97 207
-0.633089 0.943118 2.040963 -0.682538 0.682539 0.261309 194 97 207
-0.689971 1.000000 1.743814 -0.682538 0.682539 0.261309 194 97 207
-1.000000 0.689971 1.743814 -0.682538 0.682539 0.261309 194 97 207
0.943118 -0.633090 -2.040963 0.982167 0.000000 -0.188011 194 97 207
0.943118 0.633089 -2.040963 0.982167 0.000000 -0.188011 194 97 207
1.000000 0.689971 -1.743814 0.982167 0.000000 -0.188011 194 97 207
1.000000 -0.689971 -1.743814 0.982167 0.000000 -0.188011 194 97 207
0.943119 0.633089 2.040963 0.982167 -0.000001 0.188011 194 97 207
0.943118 -0.633090 2.040963 0.982167 -0.000001 0.188011 194 97 207
1.000000 -0.689972 1.743814 0.982167 -0.000001 0.188011 194 97 207
1.000000 0.689971 1.743814 0.982167 -0.000001 0.188011 194 97 207
-0.689971 1.000000 -1.743814 0.000000 0.982167 -0.188011 194 97 207
0.689971 1.000000 -1.743814 0.000000 0.982167 -0.188011 194 97 207
0.633090 0.943118 -2.040963 0.000000 0.982167 -0.188011 194 97 207
-0.633089 0.943119 -2.040963 0.000000 0.982167 -0.188011 194 97 207
-0.633089 0.943118 2.040963 0.000000 0.982167 0.188011 194 97 207
0.633090 0.943118 2.040963 0.000000 0.982167 0.188011 194 97 207
0.689972 1.000000 1.743814 0.000000 0.982167 0.188011 194 97 207
-0.689971 1.000000 1.743814 0.000000 0.982167 0.188011 194 97 207
0.689971 -1.000000 -1.743814 -0.000000 -0.982167 -0.188011 194 97 207
-0.689971 -1.000000 -1.743814 -0.000000 -0.982167 -0.188011 194 97 207
-0.633090 -0.943118 -2.040963 -0.000000 -0.982167 -0.188011 194 97 207
0.633090 -0.943118 -2.040963 -0.000000 -0.982167 -0.188011 194 97 207
0.633089 -0.943119 2.040963 -0.000001 -0.982167 0.188011 194 97 207
-0.633090 -0.943118 2.040963 -0.000001 -0.982167 0.188011 194 97 207
-0.689971 -1.000000 1.743814 -0.000001 -0.982167 0.188011 194 97 207
0.689970 -1.000000 1.743814 -0.000001 -0.982167 0.188011 194 97 207
-1.000000 -0.689971 -1.743814 -0.982167 0.000000 -0.188011 194 97 207
-1.000000 0.689971 -1.743814 -0.982167 0.000000 -0.188011 194 97 207
-0.943118 0.633090 -2.040963 -0.982167 0.000000 -0.188011 194 97 207
-0.943118 -0.633089 -2.040963 -0.982167 0.000000 -0.188011 194 97 207
-0.943119 -0.633089 2.040963 -0.982167 0.000000 0.188011 194 97 207
-0.943118 0.633089 2.040963 -0.982167 0.000000 0.188011 194 97 207
-1.000000 0.689971 1.743814 -0.982167 0.000000 0.188011 194 97 207
-1.000000 -0.689971 1.743814 -0.982167 0.000000 0.188011 194 97 207
0.166775 0.476804 -3.191658 0.613498 0.613497 -0.497234 194 97 207
0.633090 0.943118 -2.040963 0.613498 0.613497 -0.497234 194 97 207
0.943118 0.633089 -2.040963 0.613498 0.613497 -0.497234 194 97 207
0.476804 0.166775 -3.191658 0.613498 0.613497 -0.497234 194 97 207
4 0 1 2 3
4 4 5 6 7
3 8 9 10
3 10 11 12
3 12 13 14
3 14 15 8
3 8 10 12
3 12 14 8
4 16 17 18 19
3 20 21 22
3 23 24 25
3 26 27 28
3 29 30 31
3 32 33 34
3 34 35 32
4 36 37 38 39
4 40 41 42 43
4 44 45 46 47
4 48 49 50 51
4 52 53 54 55
4 56 57 58 59
4 60 61 62 63
4 64 65 66 67
4 68 69 70 71
4 72 73 74 75
4 76 77 78 79
4 80 81 82 83
4 84 85 86 87
4 88 89 90 91
4 92 93 94 95
4 96 97 98 99
4 100 101 102 103
4 104 105 106 107
4 108 109 110 111
4 112 113 114 115
4 116 117 118 119
4 120 121 122 123
4 124 125 126 127
4 128 129 130 131
4 132 133 134 135
4 136 137 138 139
4 140 141 142 143
4 144 145 146 147
4 148 149 150 151
4 152 153 154 155
4 156 157 158 159
4 160 161 162 163
4 164 165 166 167
4 168 169 170 171
4 172 173 174 175
4 176 177 178 179
4 180 181 182 183
4 184 185 186 187
4 188 189 190 191
4 192 193 194 195
4 196 197 198 199
4 200 201 202 203
4 204 205 206 207
4 208 209 210 211
4 212 213 214 215
4 216 217 218 219
4 220 221 222 223
4 224 225 226 227
4 228 229 230 231
4 232 233 234 235
4 236 237 238 239
4 240 241 242 243
4 244 245 246 247
