ply
format ascii 1.0
comment Created by Blender 2.79 (sub 0) - www.blender.org, source file: 'tree.blend'
element vertex 241
property float x
property float y
property float z
property float nx
property float ny
property float nz
property uchar red
property uchar green
property uchar blue
element face 66
property list uchar uint vertex_indices
end_header
-0.582843 0.000000 0.800000 -0.932337 0.298700 0.203777 142 255 174
-0.441421 0.441422 0.800000 -0.932337 0.298700 0.203777 142 255 174
-0.573847 0.573848 0.000000 -0.932337 0.298700 0.203777 142 255 174
-0.757695 0.000000 0.000000 -0.932337 0.298700 0.203777 142 255 174
0.441421 0.441421 0.800000 0.932338 0.298700 0.203777 142 255 174
0.582843 0.000000 0.800000 0.932338 0.298700 0.203777 142 255 174
0.757696 -0.000000 0.000000 0.932338 0.298700 0.203777 142 255 174
0.573848 0.573848 0.000000 0.932338 0.298700 0.203777 142 255 174
-0.582843 0.000000 0.800000 -0.952320 -0.305101 0.000000 142 255 174
-0.441421 -0.441421 0.800000 -0.952320 -0.305101 0.000000 142 255 174
-0.441421 -0.441421 2.800000 -0.952320 -0.305101 0.000000 142 255 174
-0.582843 0.000000 2.800000 -0.952320 -0.305101 0.000000 142 255 174
0.582843 0.000000 0.800000 0.932337 -0.298700 0.203777 142 255 174
0.441421 -0.441421 0.800000 0.932337 -0.298700 0.203777 142 255 174
0.573848 -0.573848 0.000000 0.932337 -0.298700 0.203777 142 255 174
0.757696 -0.000000 0.000000 0.932337 -0.298700 0.203777 142 255 174
-0.441421 -0.441421 0.800000 -0.932338 -0.298700 0.203777 142 255 174
-0.582843 0.000000 0.800000 -0.932338 -0.298700 0.203777 142 255 174
-0.757695 0.000000 0.000000 -0.932338 -0.298700 0.203777 142 255 174
-0.573848 -0.573848 0.000000 -0.932338 -0.298700 0.203777 142 255 174
0.441421 -0.441421 0.800000 0.952320 -0.305102 0.000000 142 255 174
0.582843 0.000000 0.800000 0.952320 -0.305102 0.000000 142 255 174
0.582843 0.000000 2.800000 0.952320 -0.305102 0.000000 142 255 174
0.441421 -0.441421 2.800000 0.952320 -0.305102 0.000000 142 255 174
0.582843 0.000000 0.800000 0.952320 0.305102 0.000000 142 255 174
0.441421 0.441421 0.800000 0.952320 0.305102 0.000000 142 255 174
0.441421 0.441421 2.800000 0.952320 0.305102 0.000000 142 255 174
0.582843 0.000000 2.800000 0.952320 0.305102 0.000000 142 255 174
-0.441421 0.441422 0.800000 -0.952320 0.305102 0.000000 142 255 174
-0.582843 0.000000 0.800000 -0.952320 0.305102 0.000000 142 255 174
-0.582843 0.000000 2.800000 -0.952320 0.305102 0.000000 142 255 174
-0.441421 0.441422 2.800000 -0.952320 0.305102 0.000000 142 255 174
-0.441421 -0.441421 0.800000 -0.305102 -0.952320 0.000000 142 255 174
0.000000 -0.582843 0.800000 -0.305102 -0.952320 0.000000 142 255 174
0.000000 -0.582843 2.800000 -0.305102 -0.952320 0.000000 142 255 174
-0.441421 -0.441421 2.800000 -0.305102 -0.952320 0.000000 142 255 174
0.000000 0.582843 0.800000 -0.305102 0.952320 0.000000 142 255 174
-0.441421 0.441422 0.800000 -0.305102 0.952320 0.000000 142 255 174
-0.441421 0.441422 2.800000 -0.305102 0.952320 0.000000 142 255 174
0.000000 0.582843 2.800000 -0.305102 0.952320 0.000000 142 255 174
0.441421 0.441421 0.800000 0.305102 0.952320 0.000000 142 255 174
0.000000 0.582843 0.800000 0.305102 0.952320 0.000000 142 255 174
0.000000 0.582843 2.800000 0.305102 0.952320 0.000000 142 255 174
0.441421 0.441421 2.800000 0.305102 0.952320 0.000000 142 255 174
0.000000 -0.582843 0.800000 0.305102 -0.952320 0.000000 142 255 174
0.441421 -0.441421 0.800000 0.305102 -0.952320 0.000000 142 255 174
0.441421 -0.441421 2.800000 0.305102 -0.952320 0.000000 142 255 174
0.000000 -0.582843 2.800000 0.305102 -0.952320 0.000000 142 255 174
0.441421 0.441421 2.800000 0.305005 0.952017 0.025222 142 255 174
0.000000 0.582843 2.800000 0.305005 0.952017 0.025222 142 255 174
0.000000 0.524559 5.000000 0.305005 0.952017 0.025222 142 255 174
0.397279 0.397279 5.000000 0.305005 0.952017 0.025222 142 255 174
0.524558 0.000000 5.000000 0.851935 0.272941 0.446889 142 255 174
0.397279 0.397279 5.000000 0.851935 0.272941 0.446889 142 255 174
0.278095 0.278096 5.300000 0.851935 0.272941 0.446889 142 255 174
0.367191 0.000000 5.300000 0.851935 0.272941 0.446889 142 255 174
-0.441421 0.441422 2.800000 -0.952017 0.305005 0.025222 142 255 174
-0.582843 0.000000 2.800000 -0.952017 0.305005 0.025222 142 255 174
-0.524558 0.000000 5.000000 -0.952017 0.305005 0.025222 142 255 174
-0.397279 0.397279 5.000000 -0.952017 0.305005 0.025222 142 255 174
-0.441421 -0.441421 2.800000 -0.305005 -0.952017 0.025222 142 255 174
0.000000 -0.582843 2.800000 -0.305005 -0.952017 0.025222 142 255 174
-0.000000 -0.524558 5.000000 -0.305005 -0.952017 0.025222 142 255 174
-0.397279 -0.397279 5.000000 -0.305005 -0.952017 0.025222 142 255 174
0.441421 -0.441421 2.800000 0.952017 -0.305005 0.025222 142 255 174
0.582843 0.000000 2.800000 0.952017 -0.305005 0.025222 142 255 174
0.524558 0.000000 5.000000 0.952017 -0.305005 0.025222 142 255 174
0.397279 -0.397279 5.000000 0.952017 -0.305005 0.025222 142 255 174
-0.582843 0.000000 2.800000 -0.952017 -0.305004 0.025222 142 255 174
-0.441421 -0.441421 2.800000 -0.952017 -0.305004 0.025222 142 255 174
-0.397279 -0.397279 5.000000 -0.952017 -0.305004 0.025222 142 255 174
-0.524558 0.000000 5.000000 -0.952017 -0.305004 0.025222 142 255 174
0.582843 0.000000 2.800000 0.952017 0.305005 0.025222 142 255 174
0.441421 0.441421 2.800000 0.952017 0.305005 0.025222 142 255 174
0.397279 0.397279 5.000000 0.952017 0.305005 0.025222 142 255 174
0.524558 0.000000 5.000000 0.952017 0.305005 0.025222 142 255 174
0.000000 -0.582843 2.800000 0.305004 -0.952017 0.025222 142 255 174
0.441421 -0.441421 2.800000 0.305004 -0.952017 0.025222 142 255 174
0.397279 -0.397279 5.000000 0.305004 -0.952017 0.025222 142 255 174
-0.000000 -0.524558 5.000000 0.305004 -0.952017 0.025222 142 255 174
0.000000 0.582843 2.800000 -0.305005 0.952017 0.025222 142 255 174
-0.441421 0.441422 2.800000 -0.305005 0.952017 0.025222 142 255 174
-0.397279 0.397279 5.000000 -0.305005 0.952017 0.025222 142 255 174
0.000000 0.524559 5.000000 -0.305005 0.952017 0.025222 142 255 174
0.278095 -0.278095 5.300000 0.657085 -0.210515 0.723825 142 255 174
0.367191 0.000000 5.300000 0.657085 -0.210515 0.723825 142 255 174
0.146876 0.000000 5.500000 0.657085 -0.210515 0.723825 142 255 174
0.111238 -0.111238 5.500000 0.657085 -0.210515 0.723825 142 255 174
-0.000000 -0.524558 5.000000 0.272941 -0.851935 0.446889 142 255 174
0.397279 -0.397279 5.000000 0.272941 -0.851935 0.446889 142 255 174
0.278095 -0.278095 5.300000 0.272941 -0.851935 0.446889 142 255 174
0.000000 -0.367191 5.300000 0.272941 -0.851935 0.446889 142 255 174
0.000000 0.524559 5.000000 -0.272941 0.851935 0.446889 142 255 174
-0.397279 0.397279 5.000000 -0.272941 0.851935 0.446889 142 255 174
-0.278095 0.278096 5.300000 -0.272941 0.851935 0.446889 142 255 174
0.000000 0.367191 5.300000 -0.272941 0.851935 0.446889 142 255 174
0.397279 0.397279 5.000000 0.272941 0.851935 0.446889 142 255 174
0.000000 0.524559 5.000000 0.272941 0.851935 0.446889 142 255 174
0.000000 0.367191 5.300000 0.272941 0.851935 0.446889 142 255 174
0.278095 0.278096 5.300000 0.272941 0.851935 0.446889 142 255 174
-0.397279 0.397279 5.000000 -0.851935 0.272941 0.446889 142 255 174
-0.524558 0.000000 5.000000 -0.851935 0.272941 0.446889 142 255 174
-0.367191 0.000000 5.300000 -0.851935 0.272941 0.446889 142 255 174
-0.278095 0.278096 5.300000 -0.851935 0.272941 0.446889 142 255 174
-0.397279 -0.397279 5.000000 -0.272941 -0.851935 0.446889 142 255 174
-0.000000 -0.524558 5.000000 -0.272941 -0.851935 0.446889 142 255 174
0.000000 -0.367191 5.300000 -0.272941 -0.851935 0.446889 142 255 174
-0.278095 -0.278095 5.300000 -0.272941 -0.851935 0.446889 142 255 174
0.397279 -0.397279 5.000000 0.851935 -0.272941 0.446889 142 255 174
0.524558 0.000000 5.000000 0.851935 -0.272941 0.446889 142 255 174
0.367191 0.000000 5.300000 0.851935 -0.272941 0.446889 142 255 174
0.278095 -0.278095 5.300000 0.851935 -0.272941 0.446889 142 255 174
-0.524558 0.000000 5.000000 -0.851935 -0.272940 0.446889 142 255 174
-0.397279 -0.397279 5.000000 -0.851935 -0.272940 0.446889 142 255 174
-0.278095 -0.278095 5.300000 -0.851935 -0.272940 0.446889 142 255 174
-0.367191 0.000000 5.300000 -0.851935 -0.272940 0.446889 142 255 174
0.111238 -0.111238 5.500000 0.000000 0.000000 1.000000 142 255 174
0.146876 0.000000 5.500000 0.000000 0.000000 1.000000 142 255 174
0.111238 0.111238 5.500000 0.000000 0.000000 1.000000 142 255 174
0.000000 0.146877 5.500000 -0.000000 0.000000 1.000000 142 255 174
-0.111238 0.111238 5.500000 -0.000000 0.000000 1.000000 142 255 174
-0.146876 0.000000 5.500000 0.000000 -0.000000 1.000000 142 255 174
-0.111238 -0.111238 5.500000 0.000000 -0.000000 1.000000 142 255 174
0.000000 -0.146876 5.500000 0.000000 0.000000 1.000000 142 255 174
-0.367191 0.000000 5.300000 -0.657085 -0.210515 0.723825 142 255 174
-0.278095 -0.278095 5.300000 -0.657085 -0.210515 0.723825 142 255 174
-0.111238 -0.111238 5.500000 -0.657085 -0.210515 0.723825 142 255 174
-0.146876 0.000000 5.500000 -0.657085 -0.210515 0.723825 142 255 174
0.367191 0.000000 5.300000 0.657085 0.210515 0.723825 142 255 174
0.278095 0.278096 5.300000 0.657085 0.210515 0.723825 142 255 174
0.111238 0.111238 5.500000 0.657085 0.210515 0.723825 142 255 174
0.146876 0.000000 5.500000 0.657085 0.210515 0.723825 142 255 174
0.000000 -0.367191 5.300000 0.210515 -0.657085 0.723825 142 255 174
0.278095 -0.278095 5.300000 0.210515 -0.657085 0.723825 142 255 174
0.111238 -0.111238 5.500000 0.210515 -0.657085 0.723825 142 255 174
0.000000 -0.146876 5.500000 0.210515 -0.657085 0.723825 142 255 174
0.000000 0.367191 5.300000 -0.210515 0.657085 0.723825 142 255 174
-0.278095 0.278096 5.300000 -0.210515 0.657085 0.723825 142 255 174
-0.111238 0.111238 5.500000 -0.210515 0.657085 0.723825 142 255 174
0.000000 0.146877 5.500000 -0.210515 0.657085 0.723825 142 255 174
0.278095 0.278096 5.300000 0.210515 0.657085 0.723825 142 255 174
0.000000 0.367191 5.300000 0.210515 0.657085 0.723825 142 255 174
0.000000 0.146877 5.500000 0.210515 0.657085 0.723825 142 255 174
0.111238 0.111238 5.500000 0.210515 0.657085 0.723825 142 255 174
-0.278095 0.278096 5.300000 -0.657084 0.210515 0.723825 142 255 174
-0.367191 0.000000 5.300000 -0.657084 0.210515 0.723825 142 255 174
-0.146876 0.000000 5.500000 -0.657084 0.210515 0.723825 142 255 174
-0.111238 0.111238 5.500000 -0.657084 0.210515 0.723825 142 255 174
-0.278095 -0.278095 5.300000 -0.210515 -0.657085 0.723826 142 255 174
0.000000 -0.367191 5.300000 -0.210515 -0.657085 0.723826 142 255 174
0.000000 -0.146876 5.500000 -0.210515 -0.657085 0.723826 142 255 174
-0.111238 -0.111238 5.500000 -0.210515 -0.657085 0.723826 142 255 174
-0.573848 -0.573848 0.000000 -0.945507 -0.302919 -0.119401 142 255 174
-0.757695 0.000000 0.000000 -0.945507 -0.302919 -0.119401 142 255 174
-0.681926 0.000000 -0.600000 -0.945507 -0.302919 -0.119401 142 255 174
-0.516463 -0.516463 -0.600000 -0.945507 -0.302919 -0.119401 142 255 174
0.573848 -0.573848 0.000000 0.302919 -0.945507 -0.119401 142 255 174
0.000000 -0.757695 0.000000 0.302919 -0.945507 -0.119401 142 255 174
0.000000 -0.681926 -0.600000 0.302919 -0.945507 -0.119401 142 255 174
0.516463 -0.516463 -0.600000 0.302919 -0.945507 -0.119401 142 255 174
0.000000 0.757696 0.000000 0.302919 0.945507 -0.119401 142 255 174
0.573848 0.573848 0.000000 0.302919 0.945507 -0.119401 142 255 174
0.516463 0.516463 -0.600000 0.302919 0.945507 -0.119401 142 255 174
0.000000 0.681926 -0.600000 0.302919 0.945507 -0.119401 142 255 174
-0.573847 0.573848 0.000000 -0.302919 0.945507 -0.119401 142 255 174
0.000000 0.757696 0.000000 -0.302919 0.945507 -0.119401 142 255 174
0.000000 0.681926 -0.600000 -0.302919 0.945507 -0.119401 142 255 174
-0.516463 0.516463 -0.600000 -0.302919 0.945507 -0.119401 142 255 174
0.000000 -0.582843 0.800000 -0.298700 -0.932338 0.203777 142 255 174
-0.441421 -0.441421 0.800000 -0.298700 -0.932338 0.203777 142 255 174
-0.573848 -0.573848 0.000000 -0.298700 -0.932338 0.203777 142 255 174
0.000000 -0.757695 0.000000 -0.298700 -0.932338 0.203777 142 255 174
-0.441421 0.441422 0.800000 -0.298700 0.932338 0.203777 142 255 174
0.000000 0.582843 0.800000 -0.298700 0.932338 0.203777 142 255 174
0.000000 0.757696 0.000000 -0.298700 0.932338 0.203777 142 255 174
-0.573847 0.573848 0.000000 -0.298700 0.932338 0.203777 142 255 174
0.000000 0.582843 0.800000 0.298700 0.932337 0.203777 142 255 174
0.441421 0.441421 0.800000 0.298700 0.932337 0.203777 142 255 174
0.573848 0.573848 0.000000 0.298700 0.932337 0.203777 142 255 174
0.000000 0.757696 0.000000 0.298700 0.932337 0.203777 142 255 174
0.441421 -0.441421 0.800000 0.298700 -0.932338 0.203777 142 255 174
0.000000 -0.582843 0.800000 0.298700 -0.932338 0.203777 142 255 174
0.000000 -0.757695 0.000000 0.298700 -0.932338 0.203777 142 255 174
0.573848 -0.573848 0.000000 0.298700 -0.932338 0.203777 142 255 174
-0.516463 0.516463 -0.600000 -0.270743 0.845077 -0.461024 142 255 174
0.000000 0.681926 -0.600000 -0.270743 0.845077 -0.461024 142 255 174
0.000000 0.409156 -1.100000 -0.270743 0.845077 -0.461024 142 255 174
-0.309878 0.309878 -1.100000 -0.270743 0.845077 -0.461024 142 255 174
0.000000 -0.681926 -0.600000 -0.270743 -0.845077 -0.461024 142 255 174
-0.516463 -0.516463 -0.600000 -0.270743 -0.845077 -0.461024 142 255 174
-0.309878 -0.309878 -1.100000 -0.270743 -0.845077 -0.461024 142 255 174
0.000000 -0.409155 -1.100000 -0.270743 -0.845077 -0.461024 142 255 174
-0.681926 0.000000 -0.600000 -0.845077 0.270744 -0.461024 142 255 174
-0.516463 0.516463 -0.600000 -0.845077 0.270744 -0.461024 142 255 174
-0.309878 0.309878 -1.100000 -0.845077 0.270744 -0.461024 142 255 174
-0.409155 0.000000 -1.100000 -0.845077 0.270744 -0.461024 142 255 174
0.516463 0.516463 -0.600000 0.845077 0.270743 -0.461024 142 255 174
0.681926 0.000000 -0.600000 0.845077 0.270743 -0.461024 142 255 174
0.409156 0.000000 -1.100000 0.845077 0.270743 -0.461024 142 255 174
0.309878 0.309878 -1.100000 0.845077 0.270743 -0.461024 142 255 174
0.757696 -0.000000 0.000000 0.945507 -0.302919 -0.119401 142 255 174
0.573848 -0.573848 0.000000 0.945507 -0.302919 -0.119401 142 255 174
0.516463 -0.516463 -0.600000 0.945507 -0.302919 -0.119401 142 255 174
0.681926 0.000000 -0.600000 0.945507 -0.302919 -0.119401 142 255 174
0.573848 0.573848 0.000000 0.945507 0.302919 -0.119401 142 255 174
0.757696 -0.000000 0.000000 0.945507 0.302919 -0.119401 142 255 174
0.681926 0.000000 -0.600000 0.945507 0.302919 -0.119401 142 255 174
0.516463 0.516463 -0.600000 0.945507 0.302919 -0.119401 142 255 174
-0.757695 0.000000 0.000000 -0.945507 0.302919 -0.119401 142 255 174
-0.573847 0.573848 0.000000 -0.945507 0.302919 -0.119401 142 255 174
-0.516463 0.516463 -0.600000 -0.945507 0.302919 -0.119401 142 255 174
-0.681926 0.000000 -0.600000 -0.945507 0.302919 -0.119401 142 255 174
0.000000 -0.757695 0.000000 -0.302919 -0.945507 -0.119401 142 255 174
-0.573848 -0.573848 0.000000 -0.302919 -0.945507 -0.119401 142 255 174
-0.516463 -0.516463 -0.600000 -0.302919 -0.945507 -0.119401 142 255 174
0.000000 -0.681926 -0.600000 -0.302919 -0.945507 -0.119401 142 255 174
0.000000 0.000000 -1.100000 0.000000 0.000000 -1.000000 142 255 174
0.000000 -0.409155 -1.100000 0.000000 0.000000 -1.000000 142 255 174
-0.309878 -0.309878 -1.100000 0.000000 0.000000 -1.000000 142 255 174
-0.409155 0.000000 -1.100000 0.000000 0.000000 -1.000000 142 255 174
0.409156 0.000000 -1.100000 0.000000 0.000000 -1.000000 142 255 174
0.309878 -0.309878 -1.100000 0.000000 0.000000 -1.000000 142 255 174
0.309878 0.309878 -1.100000 0.000000 0.000000 -1.000000 142 255 174
0.000000 0.409156 -1.100000 0.000000 0.000000 -1.000000 142 255 174
-0.309878 0.309878 -1.100000 0.000000 0.000000 -1.000000 142 255 174
0.000000 0.681926 -0.600000 0.270744 0.845077 -0.461024 142 255 174
0.516463 0.516463 -0.600000 0.270744 0.845077 -0.461024 142 255 174
0.309878 0.309878 -1.100000 0.270744 0.845077 -0.461024 142 255 174
0.000000 0.409156 -1.100000 0.270744 0.845077 -0.461024 142 255 174
0.516463 -0.516463 -0.600000 0.270743 -0.845077 -0.461024 142 255 174
0.000000 -0.681926 -0.600000 0.270743 -0.845077 -0.461024 142 255 174
0.000000 -0.409155 -1.100000 0.270743 -0.845077 -0.461024 142 255 174
0.309878 -0.309878 -1.100000 0.270743 -0.845077 -0.461024 142 255 174
-0.516463 -0.516463 -0.600000 -0.845077 -0.270743 -0.461024 142 255 174
-0.681926 0.000000 -0.600000 -0.845077 -0.270743 -0.461024 142 255 174
-0.409155 0.000000 -1.100000 -0.845077 -0.270743 -0.461024 142 255 174
-0.309878 -0.309878 -1.100000 -0.845077 -0.270743 -0.461024 142 255 174
0.681926 0.000000 -0.600000 0.845077 -0.270743 -0.461024 142 255 174
0.516463 -0.516463 -0.600000 0.845077 -0.270743 -0.461024 142 255 174
0.309878 -0.309878 -1.100000 0.845077 -0.270743 -0.461024 142 255 174
0.409156 0.000000 -1.100000 0.845077 -0.270743 -0.461024 142 255 174
4 0 1 2 3
4 4 5 6 7
4 8 9 10 11
4 12 13 14 15
4 16 17 18 19
4 20 21 22 23
4 24 25 26 27
4 28 29 30 31
4 32 33 34 35
4 36 37 38 39
4 40 41 42 43
4 44 45 46 47
4 48 49 50 51
4 52 53 54 55
4 56 57 58 59
4 60 61 62 63
4 64 65 66 67
4 68 69 70 71
4 72 73 74 75
4 76 77 78 79
4 80 81 82 83
4 84 85 86 87
4 88 89 90 91
4 92 93 94 95
4 96 97 98 99
4 100 101 102 103
4 104 105 106 107
4 108 109 110 111
4 112 113 114 115
3 116 117 118
3 118 119 120
3 120 121 122
3 122 123 116
3 116 118 120
3 120 122 116
4 124 125 126 127
4 128 129 130 131
4 132 133 134 135
4 136 137 138 139
4 140 141 142 143
4 144 145 146 147
4 148 149 150 151
4 152 153 154 155
4 156 157 158 159
4 160 161 162 163
4 164 165 166 167
4 168 169 170 171
4 172 173 174 175
4 176 177 178 179
4 180 181 182 183
4 184 185 186 187
4 188 189 190 191
4 192 193 194 195
4 196 197 198 199
4 200 201 202 203
4 204 205 206 207
4 208 209 210 211
4 212 213 214 215
4 216 217 218 219
4 220 221 217 216
4 222 220 216 223
4 223 216 219 224
4 225 226 227 228
4 229 230 231 232
4 233 234 235 236
4 237 238 239 240
