ply
format ascii 1.0
comment Created by Blender 2.79 (sub 0) - www.blender.org, source file: 'Danvault_mech_A3.blend'
element vertex 258
property float x
property float y
property float z
property float nx
property float ny
property float nz
property uchar red
property uchar green
property uchar blue
element face 412
property list uchar uint vertex_indices
end_header
0.000000 -0.000000 -1.382879 0.000000 0.000000 -0.999969 255 128 160
-0.084442 0.259889 -1.344818 -0.083834 0.258003 -0.962493 255 128 160
0.221076 0.160619 -1.344818 0.219459 0.159459 -0.962493 255 128 160
0.221076 -0.160619 -1.344818 0.219459 -0.159459 -0.962493 255 128 160
-0.084442 -0.259889 -1.344818 -0.083834 -0.258003 -0.962493 255 128 160
0.723607 -0.525725 -0.828979 0.730430 -0.530686 -0.429884 255 128 160
0.818272 -0.273263 -0.888294 0.826228 -0.275826 -0.491165 255 128 160
0.870463 -0.433883 -0.588294 0.875881 -0.435408 -0.207923 255 128 160
-0.273266 -0.000000 -1.344817 -0.271279 0.000000 -0.962493 255 128 160
0.597197 -0.433884 -1.057494 0.598773 -0.435041 -0.672414 255 128 160
-0.276388 -0.850649 -0.828979 -0.278970 -0.858669 -0.429884 255 128 160
-0.007027 -0.862664 -0.888295 -0.006989 -0.871029 -0.491165 255 128 160
-0.143662 -0.961938 -0.588295 -0.143437 -0.967559 -0.207923 255 128 160
-0.894426 -0.000000 -0.828975 -0.902860 0.000000 -0.429884 255 128 160
-0.822618 -0.259891 -0.888293 -0.830561 -0.262490 -0.491165 255 128 160
-0.959252 -0.160619 -0.588292 -0.964538 -0.162542 -0.207923 255 128 160
-0.276388 0.850649 -0.828979 -0.278970 0.858669 -0.429884 255 128 160
-0.501372 0.702044 -0.888296 -0.506302 0.708792 -0.491165 255 128 160
-0.449183 0.862669 -0.588295 -0.452651 0.867092 -0.207923 255 128 160
0.723607 0.525725 -0.828979 0.730430 0.530686 -0.429884 255 128 160
0.512755 0.693775 -0.888296 0.517624 0.700552 -0.491165 255 128 160
0.681642 0.693778 -0.588296 0.684774 0.698447 -0.207923 255 128 160
0.681642 -0.693778 -0.588295 0.684774 -0.698447 -0.207923 255 128 160
-0.449183 -0.862669 -0.588295 -0.452651 -0.867092 -0.207923 255 128 160
-0.959252 0.160619 -0.588292 -0.964538 0.162542 -0.207923 255 128 160
-0.143662 0.961938 -0.588295 -0.143437 0.967559 -0.207923 255 128 160
0.870463 0.433883 -0.588294 0.875881 0.435408 -0.207923 255 128 160
0.276388 -0.850649 0.363529 0.293893 -0.904569 0.308786 255 128 160
0.501372 -0.702044 0.448162 0.558672 -0.750084 0.353801 255 128 160
0.228104 -0.702043 0.731343 0.268136 -0.825251 0.497024 255 128 160
-0.723607 -0.525725 0.363529 -0.769463 -0.559038 0.308786 255 128 160
-0.512755 -0.693775 0.448162 -0.540727 -0.763146 0.353801 255 128 160
-0.597197 -0.433884 0.731344 -0.701987 -0.510025 0.497024 255 128 160
-0.723607 0.525725 0.363529 -0.769463 0.559038 0.308786 255 128 160
-0.818272 0.273263 0.448160 -0.892880 0.278420 0.353801 255 128 160
-0.597197 0.433883 0.731344 -0.701987 0.510025 0.497024 255 128 160
0.276388 0.850649 0.363529 0.293893 0.904569 0.308786 255 128 160
0.007027 0.862664 0.448162 -0.011078 0.935240 0.353801 255 128 160
0.228104 0.702043 0.731343 0.268136 0.825251 0.497024 255 128 160
0.894426 -0.000000 0.363524 0.951109 0.000000 0.308786 255 128 160
0.822619 0.259891 0.448159 0.886044 0.299539 0.353801 255 128 160
0.738175 -0.000000 0.731339 0.867702 0.000000 0.497024 255 128 160
0.525730 -0.000000 1.020978 0.674734 0.000000 0.738029 255 128 160
0.361800 0.262863 1.061679 0.506333 0.367870 0.779900 255 128 160
0.273266 -0.000000 1.179059 0.365581 0.000000 0.930754 255 128 160
0.638195 0.262864 0.798822 0.756493 0.346477 0.554643 255 128 160
0.688190 0.499997 0.455526 0.754418 0.548112 0.361095 255 128 160
0.501372 0.702044 0.448162 0.558672 0.750084 0.353801 255 128 160
0.447211 0.525728 0.798824 0.563311 0.612384 0.554643 255 128 160
0.162456 0.499995 1.020982 0.208502 0.641713 0.738029 255 128 160
-0.138197 0.425319 1.061679 -0.193396 0.595233 0.779900 255 128 160
0.084442 0.259889 1.179060 0.112949 0.347667 0.930754 255 128 160
-0.052790 0.688186 0.798825 -0.095767 0.826533 0.554643 255 128 160
-0.262869 0.809012 0.455527 -0.288156 0.886868 0.361095 255 128 160
-0.512755 0.693775 0.448162 -0.540727 0.763146 0.353801 255 128 160
-0.361803 0.587780 0.798825 -0.408338 0.724967 0.554643 255 128 160
-0.425323 0.309011 1.020982 -0.545885 0.396588 0.738029 255 128 160
-0.447209 -0.000000 1.061678 -0.625874 0.000000 0.779900 255 128 160
-0.221075 0.160619 1.179060 -0.295755 0.214881 0.930754 255 128 160
-0.670818 0.162457 0.798824 -0.815668 0.164312 0.554643 255 128 160
-0.850648 -0.000000 0.455525 -0.932493 0.000000 0.361095 255 128 160
-0.818272 -0.273263 0.448160 -0.892880 -0.278420 0.353801 255 128 160
-0.670818 -0.162457 0.798824 -0.815668 -0.164312 0.554643 255 128 160
-0.425323 -0.309011 1.020982 -0.545885 -0.396588 0.738029 255 128 160
-0.138197 -0.425319 1.061679 -0.193396 -0.595233 0.779900 255 128 160
-0.221075 -0.160619 1.179060 -0.295755 -0.214881 0.930754 255 128 160
-0.361803 -0.587780 0.798825 -0.408338 -0.724967 0.554643 255 128 160
-0.262869 -0.809012 0.455527 -0.288156 -0.886868 0.361095 255 128 160
0.007027 -0.862664 0.448162 -0.011078 -0.935240 0.353801 255 128 160
-0.052790 -0.688186 0.798825 -0.095767 -0.826533 0.554643 255 128 160
0.162456 -0.499995 1.020982 0.208502 -0.641713 0.738029 255 128 160
0.361800 -0.262863 1.061679 0.506333 -0.367870 0.779900 255 128 160
0.084442 -0.259889 1.179060 0.112949 -0.347667 0.930754 255 128 160
0.447211 -0.525728 0.798824 0.563311 -0.612384 0.554643 255 128 160
0.688190 -0.499997 0.455526 0.754418 -0.548112 0.361095 255 128 160
0.822619 -0.259891 0.448159 0.886044 -0.299539 0.353801 255 128 160
0.638195 -0.262864 0.798822 0.756493 -0.346477 0.554643 255 128 160
0.951058 0.309013 -0.292773 0.951079 0.308847 -0.004608 255 128 160
0.861805 0.425322 0.087536 0.873440 0.448378 0.189703 255 128 160
0.959251 0.160619 0.035453 0.973022 0.163610 0.162511 255 128 160
0.809021 0.587785 -0.305420 0.809015 0.587756 0.000000 255 128 160
0.587786 0.809017 -0.292774 0.587634 0.809107 -0.004608 255 128 160
0.449184 0.862669 0.035455 0.456282 0.874844 0.162511 255 128 160
0.670820 0.688190 0.087534 0.696341 0.692129 0.189703 255 128 160
0.000000 1.000000 -0.292774 0.000153 0.999969 -0.004608 255 128 160
-0.138198 0.951054 0.087536 -0.156529 0.969268 0.189703 255 128 160
0.143662 0.961938 0.035455 0.145054 0.975951 0.162511 255 128 160
-0.309017 0.951055 -0.305420 -0.309000 0.951048 0.000000 255 128 160
-0.587786 0.809017 -0.292774 -0.587878 0.808893 -0.004608 255 128 160
-0.681642 0.693778 0.035455 -0.691031 0.704306 0.162542 255 128 160
-0.447215 0.850648 0.087535 -0.443068 0.876156 0.189703 255 128 160
-0.951058 0.309013 -0.292774 -0.950987 0.309153 -0.004608 255 128 160
-0.947212 0.162457 0.087534 -0.970183 0.150639 0.189703 255 128 160
-0.870464 0.433883 0.035455 -0.883358 0.439558 0.162542 255 128 160
-0.999999 -0.000000 -0.305419 -1.000000 0.000000 0.000000 255 128 160
-0.951058 -0.309013 -0.292774 -0.950987 -0.309153 -0.004608 255 128 160
-0.870464 -0.433883 0.035455 -0.883358 -0.439558 0.162542 255 128 160
-0.947212 -0.162457 0.087534 -0.970183 -0.150639 0.189703 255 128 160
-0.587786 -0.809017 -0.292774 -0.587878 -0.808893 -0.004608 255 128 160
-0.447215 -0.850648 0.087535 -0.443068 -0.876156 0.189703 255 128 160
-0.681642 -0.693778 0.035455 -0.691031 -0.704306 0.162542 255 128 160
-0.309017 -0.951055 -0.305420 -0.309000 -0.951048 0.000000 255 128 160
0.000000 -1.000000 -0.292774 0.000153 -0.999969 -0.004608 255 128 160
0.143662 -0.961938 0.035455 0.145054 -0.975951 0.162511 255 128 160
-0.138198 -0.951054 0.087536 -0.156529 -0.969268 0.189703 255 128 160
0.587786 -0.809017 -0.292774 0.587634 -0.809107 -0.004608 255 128 160
0.670820 -0.688190 0.087534 0.696341 -0.692129 0.189703 255 128 160
0.449184 -0.862669 0.035455 0.456282 -0.874844 0.162511 255 128 160
0.809021 -0.587785 -0.305420 0.809015 -0.587756 0.000000 255 128 160
0.951058 -0.309013 -0.292773 0.951079 -0.308847 -0.004608 255 128 160
0.959251 -0.160619 0.035453 0.973022 -0.163610 0.162511 255 128 160
0.861805 -0.425322 0.087536 0.873440 -0.448378 0.189703 255 128 160
0.309017 0.951055 -0.288170 0.308969 0.950957 -0.013489 255 128 160
0.447215 0.850648 -0.635883 0.441725 0.863430 -0.243538 255 128 160
0.262869 0.809012 -0.908467 0.265389 0.816797 -0.512192 255 128 160
-0.007027 0.862664 -0.888295 -0.006989 0.871029 -0.491165 255 128 160
0.138198 0.951054 -0.635884 0.150121 0.958190 -0.243568 255 128 160
-0.809020 0.587785 -0.288171 -0.808924 0.587725 -0.013489 255 128 160
-0.670820 0.688190 -0.635883 -0.684652 0.686941 -0.243568 255 128 160
-0.688189 0.499997 -0.908466 -0.694815 0.504807 -0.512192 255 128 160
-0.822618 0.259891 -0.888293 -0.830561 0.262490 -0.491165 255 128 160
-0.861804 0.425322 -0.635883 -0.864895 0.438856 -0.243568 255 128 160
-0.809020 -0.587785 -0.288171 -0.808924 -0.587725 -0.013489 255 128 160
-0.861804 -0.425322 -0.635883 -0.864895 -0.438856 -0.243568 255 128 160
-0.688189 -0.499997 -0.908466 -0.694815 -0.504807 -0.512192 255 128 160
-0.501372 -0.702044 -0.888296 -0.506302 -0.708792 -0.491165 255 128 160
-0.670820 -0.688190 -0.635883 -0.684652 -0.686941 -0.243568 255 128 160
0.309017 -0.951055 -0.288170 0.308969 -0.950957 -0.013489 255 128 160
0.138198 -0.951054 -0.635884 0.150121 -0.958190 -0.243568 255 128 160
0.262869 -0.809012 -0.908467 0.265389 -0.816797 -0.512192 255 128 160
0.512755 -0.693775 -0.888296 0.517624 -0.700552 -0.491165 255 128 160
0.447215 -0.850648 -0.635883 0.441725 -0.863430 -0.243538 255 128 160
-0.162455 0.499995 -1.233533 -0.162450 0.499985 -0.850642 255 128 160
-0.447211 0.525728 -1.106491 -0.450179 0.517014 -0.728019 255 128 160
-0.228104 0.702043 -1.057493 -0.228706 0.703909 -0.672414 255 128 160
-0.361800 0.262863 -1.277308 -0.369274 0.268288 -0.889706 255 128 160
-0.525730 -0.000000 -1.233531 -0.525712 0.000000 -0.850642 255 128 160
-0.738175 -0.000000 -1.057491 -0.740135 0.000000 -0.672414 255 128 160
-0.638195 0.262864 -1.106489 -0.630818 0.268380 -0.728019 255 128 160
0.850648 -0.000000 -0.908465 0.858852 0.000000 -0.512192 255 128 160
0.670818 0.162457 -1.106491 0.668081 0.153661 -0.728019 255 128 160
0.818272 0.273263 -0.888294 0.826228 0.275826 -0.491165 255 128 160
0.670818 -0.162457 -1.106491 0.668081 -0.153661 -0.728019 255 128 160
0.425323 -0.309011 -1.233533 0.425306 -0.309000 -0.850642 255 128 160
0.447209 -0.000000 -1.277308 0.456465 0.000000 -0.889706 255 128 160
-0.638195 -0.262864 -1.106489 -0.630818 -0.268380 -0.728019 255 128 160
-0.361800 -0.262863 -1.277308 -0.369274 -0.268288 -0.889706 255 128 160
-0.162455 -0.499995 -1.233533 -0.162450 -0.499985 -0.850642 255 128 160
-0.228104 -0.702043 -1.057493 -0.228706 -0.703909 -0.672414 255 128 160
-0.447211 -0.525727 -1.106491 -0.450179 -0.517014 -0.728019 255 128 160
0.999999 -0.000000 -0.288170 0.999908 0.000000 -0.013489 255 128 160
0.947212 -0.162457 -0.635881 0.957671 -0.153294 -0.243538 255 128 160
0.947212 0.162457 -0.635881 0.957671 0.153294 -0.243538 255 128 160
0.052790 -0.688186 -1.106491 0.060305 -0.682882 -0.728019 255 128 160
0.138197 -0.425319 -1.277308 0.141057 -0.434126 -0.889706 255 128 160
0.361804 -0.587780 -1.106492 0.352580 -0.587909 -0.728019 255 128 160
0.425323 0.309011 -1.233533 0.425306 0.309000 -0.850642 255 128 160
0.361804 0.587780 -1.106492 0.352580 0.587909 -0.728019 255 128 160
0.597197 0.433883 -1.057494 0.598773 0.435041 -0.672414 255 128 160
0.138197 0.425319 -1.277308 0.141057 0.434126 -0.889706 255 128 160
0.052790 0.688186 -1.106491 0.060305 0.682882 -0.728019 255 128 160
0.000000 -0.000000 1.217121 0.000000 0.000000 1.000000 255 128 160
0.959833 0.254206 0.523711 -0.943327 -0.153539 -0.294198 89 89 89
0.823636 0.254206 0.904927 -0.834651 -0.149388 -0.530076 89 89 89
0.766375 0.439407 0.889584 -0.660695 0.690146 -0.295175 89 89 89
0.902572 0.439407 0.508368 -0.763726 0.599811 -0.238563 89 89 89
1.040730 0.439407 0.963097 0.372570 0.849879 0.372600 89 89 89
1.190904 0.439407 0.585627 0.438887 0.886563 0.146184 89 89 89
1.323906 -0.254206 0.621264 0.902432 -0.310434 0.298715 89 89 89
1.173731 -0.254206 0.998734 0.764763 -0.291879 0.574358 89 89 89
1.040730 -0.439407 0.963097 0.372570 -0.849879 0.372600 89 89 89
1.190904 -0.439407 0.585627 0.438887 -0.886563 0.146184 89 89 89
0.766375 -0.439407 0.889584 -0.660695 -0.690146 -0.295175 89 89 89
0.902572 -0.439407 0.508368 -0.763726 -0.599811 -0.238563 89 89 89
1.487013 0.254206 -0.170450 0.949492 0.291879 -0.115024 89 89 89
1.487013 -0.254206 -0.170450 0.949492 -0.291879 -0.115024 89 89 89
1.431228 -0.238820 -0.305346 0.685995 -0.170598 -0.707266 89 89 89
1.431228 0.238820 -0.305346 0.685995 0.170598 -0.707266 89 89 89
1.354012 -0.439407 -0.206087 0.508957 -0.849879 -0.136387 89 89 89
1.079657 -0.439407 -0.279601 -0.719779 -0.690146 -0.074709 89 89 89
1.048527 -0.412811 -0.407891 -0.681997 -0.389355 -0.619037 89 89 89
1.306276 -0.412811 -0.338827 0.391400 -0.612293 -0.686911 89 89 89
1.295331 -0.439407 0.195898 0.453169 -0.886563 0.092807 89 89 89
1.006999 -0.439407 0.118640 -0.780694 -0.599811 -0.175237 89 89 89
1.428333 -0.254206 0.231536 0.930876 -0.310434 0.192511 89 89 89
1.079657 0.439407 -0.279601 -0.719779 0.690146 -0.074709 89 89 89
1.006999 0.439407 0.118640 -0.780694 0.599811 -0.175237 89 89 89
1.295331 0.439407 0.195899 0.453169 0.886563 0.092807 89 89 89
1.354012 0.439407 -0.206087 0.508957 0.849879 -0.136387 89 89 89
1.136918 0.254206 -0.264258 -0.987884 -0.149388 0.041749 89 89 89
1.064260 0.254206 0.133983 -0.964019 -0.153539 -0.216865 89 89 89
0.959833 -0.254206 0.523711 -0.943327 0.153539 -0.294198 89 89 89
1.064260 -0.254206 0.133983 -0.964019 0.153539 -0.216865 89 89 89
1.136917 -0.254206 -0.264258 -0.987884 0.149388 0.041749 89 89 89
1.323906 0.254206 0.621264 0.902432 0.310434 0.298715 89 89 89
1.428333 0.254206 0.231536 0.930876 0.310434 0.192511 89 89 89
0.729065 0.238820 0.999535 -0.944762 -0.126988 0.302133 89 89 89
0.675270 0.412811 0.985121 -0.900174 0.389355 0.195074 89 89 89
0.823636 -0.254206 0.904927 -0.834651 0.149388 -0.530076 89 89 89
0.729065 -0.238820 0.999535 -0.944762 0.126988 0.302133 89 89 89
1.057971 -0.238820 1.087665 0.240455 -0.170598 0.955535 89 89 89
0.933020 -0.412811 1.054185 -0.004486 -0.612293 0.790582 89 89 89
1.173731 0.254206 0.998734 0.764763 0.291879 0.574358 89 89 89
1.102322 -0.238820 -0.393476 -0.667104 0.126988 -0.734031 89 89 89
0.675270 -0.412811 0.985121 -0.900174 -0.389355 0.195074 89 89 89
0.933020 0.412811 1.054185 -0.004486 0.612293 0.790582 89 89 89
1.057971 0.238820 1.087665 0.240455 0.170598 0.955535 89 89 89
1.048527 0.412811 -0.407891 -0.681997 0.389355 -0.619037 89 89 89
1.306276 0.412811 -0.338827 0.391400 0.612293 -0.686911 89 89 89
1.102322 0.238820 -0.393476 -0.667104 -0.126988 -0.734031 89 89 89
-0.959833 0.254206 0.523711 0.943327 -0.153539 -0.294198 89 89 89
-0.902572 0.439407 0.508368 0.763726 0.599811 -0.238563 89 89 89
-0.766375 0.439407 0.889584 0.660695 0.690146 -0.295175 89 89 89
-0.823636 0.254206 0.904927 0.834651 -0.149388 -0.530076 89 89 89
-1.190904 0.439407 0.585627 -0.438887 0.886563 0.146184 89 89 89
-1.040730 0.439407 0.963097 -0.372570 0.849879 0.372600 89 89 89
-1.323906 -0.254206 0.621264 -0.902432 -0.310434 0.298715 89 89 89
-1.190904 -0.439407 0.585627 -0.438887 -0.886563 0.146184 89 89 89
-1.040730 -0.439407 0.963097 -0.372570 -0.849879 0.372600 89 89 89
-1.173731 -0.254206 0.998734 -0.764763 -0.291879 0.574358 89 89 89
-0.902572 -0.439407 0.508368 0.763726 -0.599811 -0.238563 89 89 89
-0.766375 -0.439407 0.889584 0.660695 -0.690146 -0.295175 89 89 89
-1.487013 0.254206 -0.170450 -0.949492 0.291879 -0.115024 89 89 89
-1.431228 0.238820 -0.305346 -0.685995 0.170598 -0.707266 89 89 89
-1.431228 -0.238820 -0.305346 -0.685995 -0.170598 -0.707266 89 89 89
-1.487013 -0.254206 -0.170450 -0.949492 -0.291879 -0.115024 89 89 89
-1.354012 -0.439407 -0.206087 -0.508957 -0.849879 -0.136387 89 89 89
-1.306276 -0.412811 -0.338827 -0.391400 -0.612293 -0.686911 89 89 89
-1.048527 -0.412811 -0.407891 0.682028 -0.389355 -0.619037 89 89 89
-1.079657 -0.439407 -0.279601 0.719779 -0.690146 -0.074709 89 89 89
-1.006999 -0.439407 0.118640 0.780694 -0.599811 -0.175237 89 89 89
-1.295331 -0.439407 0.195898 -0.453169 -0.886563 0.092807 89 89 89
-1.428333 -0.254206 0.231536 -0.930876 -0.310434 0.192511 89 89 89
-1.079657 0.439407 -0.279601 0.719779 0.690146 -0.074709 89 89 89
-1.354012 0.439407 -0.206087 -0.508957 0.849879 -0.136387 89 89 89
-1.295331 0.439407 0.195899 -0.453169 0.886563 0.092807 89 89 89
-1.006999 0.439407 0.118640 0.780694 0.599811 -0.175237 89 89 89
-1.136918 0.254206 -0.264258 0.987884 -0.149388 0.041749 89 89 89
-1.064260 0.254206 0.133983 0.964019 -0.153539 -0.216865 89 89 89
-1.064260 -0.254206 0.133983 0.964019 0.153539 -0.216865 89 89 89
-0.959833 -0.254206 0.523711 0.943327 0.153539 -0.294198 89 89 89
-1.136917 -0.254206 -0.264258 0.987884 0.149388 0.041749 89 89 89
-1.428333 0.254206 0.231536 -0.930876 0.310434 0.192511 89 89 89
-1.323906 0.254206 0.621264 -0.902432 0.310434 0.298715 89 89 89
-0.675270 0.412811 0.985121 0.900174 0.389355 0.195074 89 89 89
-0.729065 0.238820 0.999535 0.944762 -0.126988 0.302133 89 89 89
-0.729065 -0.238820 0.999535 0.944762 0.126988 0.302133 89 89 89
-0.823636 -0.254206 0.904927 0.834651 0.149388 -0.530076 89 89 89
-0.933020 -0.412811 1.054185 0.004486 -0.612293 0.790582 89 89 89
-1.057971 -0.238820 1.087665 -0.240455 -0.170598 0.955535 89 89 89
-1.173731 0.254206 0.998734 -0.764763 0.291879 0.574358 89 89 89
-1.102322 -0.238820 -0.393476 0.667104 0.126988 -0.734031 89 89 89
-0.675270 -0.412811 0.985121 0.900174 -0.389355 0.195074 89 89 89
-0.933020 0.412811 1.054185 0.004486 0.612293 0.790582 89 89 89
-1.057971 0.238820 1.087665 -0.240455 0.170598 0.955535 89 89 89
-1.048527 0.412811 -0.407891 0.682028 0.389355 -0.619037 89 89 89
-1.102322 0.238820 -0.393476 0.667104 -0.126988 -0.734031 89 89 89
-1.306276 0.412811 -0.338827 -0.391400 0.612293 -0.686911 89 89 89
3 0 1 2
3 0 3 4
3 5 6 7
3 0 4 8
3 5 9 6
3 0 8 1
3 10 11 12
3 13 14 15
3 16 17 18
3 19 20 21
3 5 7 22
3 10 12 23
3 13 15 24
3 16 18 25
3 19 21 26
3 27 28 29
3 30 31 32
3 33 34 35
3 36 37 38
3 39 40 41
3 42 43 44
3 42 45 43
3 46 47 48
3 49 50 51
3 49 52 50
3 53 54 55
3 56 57 58
3 56 59 57
3 60 61 62
3 63 64 65
3 63 66 64
3 67 68 69
3 70 71 72
3 70 73 71
3 74 75 76
3 77 78 79
3 77 80 78
3 81 82 83
3 84 85 86
3 84 87 85
3 88 89 90
3 91 92 93
3 91 94 92
3 95 96 97
3 98 99 100
3 98 101 99
3 102 103 104
3 105 106 107
3 105 108 106
3 109 110 111
3 81 112 82
3 81 113 112
3 114 115 116
3 88 117 89
3 88 118 117
3 119 120 121
3 95 122 96
3 95 123 122
3 124 125 126
3 102 127 103
3 102 128 127
3 129 130 131
3 132 133 134
3 132 135 133
3 136 137 138
3 139 140 141
3 139 142 140
3 143 3 144
3 136 145 137
3 136 146 145
3 147 148 149
3 109 150 110
3 109 151 150
3 139 141 152
3 147 153 148
3 147 154 153
3 143 9 155
3 156 157 158
3 156 159 157
3 132 134 160
3 160 115 114
3 160 134 115
3 134 16 115
3 157 160 114
3 157 159 160
3 159 132 160
3 158 20 19
3 158 157 20
3 157 114 20
3 155 130 129
3 155 9 130
3 9 5 130
3 153 155 129
3 153 154 155
3 154 143 155
3 148 11 10
3 148 153 11
3 153 129 11
3 152 26 77
3 152 141 26
3 141 19 26
3 150 152 77
3 150 151 152
3 151 139 152
3 110 79 39
3 110 150 79
3 150 77 79
3 149 125 124
3 149 148 125
3 148 10 125
3 145 149 124
3 145 146 149
3 146 147 149
3 137 14 13
3 137 145 14
3 145 124 14
3 144 2 156
3 144 3 2
3 3 0 2
3 140 144 156
3 140 142 144
3 142 143 144
3 141 158 19
3 141 140 158
3 140 156 158
3 138 120 119
3 138 137 120
3 137 13 120
3 133 138 119
3 133 135 138
3 135 136 138
3 134 17 16
3 134 133 17
3 133 119 17
3 131 22 105
3 131 130 22
3 130 5 22
3 127 131 105
3 127 128 131
3 128 129 131
3 103 107 27
3 103 127 107
3 127 105 107
3 126 23 98
3 126 125 23
3 125 10 23
3 122 126 98
3 122 123 126
3 123 124 126
3 96 100 30
3 96 122 100
3 122 98 100
3 121 24 91
3 121 120 24
3 120 13 24
3 117 121 91
3 117 118 121
3 118 119 121
3 89 93 33
3 89 117 93
3 117 91 93
3 116 25 84
3 116 115 25
3 115 16 25
3 112 116 84
3 112 113 116
3 113 114 116
3 82 86 36
3 82 112 86
3 112 84 86
3 111 75 74
3 111 110 75
3 110 39 75
3 106 111 74
3 106 108 111
3 108 109 111
3 107 28 27
3 107 106 28
3 106 74 28
3 104 68 67
3 104 103 68
3 103 27 68
3 99 104 67
3 99 101 104
3 101 102 104
3 100 31 30
3 100 99 31
3 99 67 31
3 97 61 60
3 97 96 61
3 96 30 61
3 92 97 60
3 92 94 97
3 94 95 97
3 93 34 33
3 93 92 34
3 92 60 34
3 90 54 53
3 90 89 54
3 89 33 54
3 85 90 53
3 85 87 90
3 87 88 90
3 86 37 36
3 86 85 37
3 85 53 37
3 83 47 46
3 83 82 47
3 82 36 47
3 78 83 46
3 78 80 83
3 80 81 83
3 79 40 39
3 79 78 40
3 78 46 40
3 76 41 42
3 76 75 41
3 75 39 41
3 71 76 42
3 71 73 76
3 73 74 76
3 72 44 161
3 72 71 44
3 71 42 44
3 69 29 70
3 69 68 29
3 68 27 29
3 64 69 70
3 64 66 69
3 66 67 69
3 65 72 161
3 65 64 72
3 64 70 72
3 62 32 63
3 62 61 32
3 61 30 32
3 57 62 63
3 57 59 62
3 59 60 62
3 58 65 161
3 58 57 65
3 57 63 65
3 55 35 56
3 55 54 35
3 54 33 35
3 50 55 56
3 50 52 55
3 52 53 55
3 51 58 161
3 51 50 58
3 50 56 58
3 48 38 49
3 48 47 38
3 47 36 38
3 43 48 49
3 43 45 48
3 45 46 48
3 44 51 161
3 44 43 51
3 43 49 51
3 41 45 42
3 41 40 45
3 40 46 45
3 38 52 49
3 38 37 52
3 37 53 52
3 35 59 56
3 35 34 59
3 34 60 59
3 32 66 63
3 32 31 66
3 31 67 66
3 29 73 70
3 29 28 73
3 28 74 73
3 26 80 77
3 26 21 80
3 21 81 80
3 25 87 84
3 25 18 87
3 18 88 87
3 24 94 91
3 24 15 94
3 15 95 94
3 23 101 98
3 23 12 101
3 12 102 101
3 22 108 105
3 22 7 108
3 7 109 108
3 21 113 81
3 21 20 113
3 20 114 113
3 18 118 88
3 18 17 118
3 17 119 118
3 15 123 95
3 15 14 123
3 14 124 123
3 12 128 102
3 12 11 128
3 11 129 128
3 1 135 132
3 1 8 135
3 8 136 135
3 6 142 139
3 6 9 142
3 9 143 142
3 8 146 136
3 8 4 146
3 4 147 146
3 7 151 109
3 7 6 151
3 6 139 151
3 4 154 147
3 4 3 154
3 3 143 154
3 2 159 156
3 2 1 159
3 1 132 159
4 162 163 164 165
4 165 164 166 167
4 168 169 170 171
4 171 170 172 173
4 174 175 176 177
4 178 179 180 181
4 178 182 183 179
4 182 171 173 183
4 175 184 182 178
4 184 168 171 182
4 185 186 187 188
4 186 165 167 187
4 189 190 186 185
4 190 162 165 186
4 183 173 191 192
4 192 191 162 190
4 179 183 192 193
4 193 192 190 189
4 187 167 194 195
4 195 194 168 184
4 188 187 195 174
4 174 195 184 175
4 175 178 181 176
4 164 163 196 197
4 163 198 199 196
4 170 169 200 201
4 167 166 202 194
4 194 202 169 168
4 173 172 198 191
4 191 198 163 162
4 203 176 181 180
4 200 199 204 201
4 205 197 196 206
4 206 196 199 200
4 207 208 177 209
4 209 177 176 203
4 172 170 201 204
4 185 188 208 207
4 202 166 205 206
4 166 164 197 205
4 169 202 206 200
4 189 185 207 209
4 193 189 209 203
4 188 174 177 208
4 179 193 203 180
4 198 172 204 199
4 210 211 212 213
4 211 214 215 212
4 216 217 218 219
4 217 220 221 218
4 222 223 224 225
4 226 227 228 229
4 226 229 230 231
4 231 230 220 217
4 225 226 231 232
4 232 231 217 216
4 233 234 235 236
4 236 235 214 211
4 237 233 236 238
4 238 236 211 210
4 230 239 240 220
4 239 238 210 240
4 229 241 239 230
4 241 237 238 239
4 235 242 243 214
4 242 232 216 243
4 234 222 242 235
4 222 225 232 242
4 225 224 227 226
4 212 244 245 213
4 213 245 246 247
4 218 248 249 219
4 214 243 250 215
4 243 216 219 250
4 220 240 247 221
4 240 210 213 247
4 251 228 227 224
4 249 248 252 246
4 253 254 245 244
4 254 249 246 245
4 255 256 223 257
4 256 251 224 223
4 221 252 248 218
4 233 255 257 234
4 250 254 253 215
4 215 253 244 212
4 219 249 254 250
4 237 256 255 233
4 241 251 256 237
4 234 257 223 222
4 229 228 251 241
4 247 246 252 221
